<?xml version="1.0" encoding="UTF-8" standalone="no"?>
<!-- Created with Inkscape (http://www.inkscape.org/) -->

<svg
   xmlns:dc="http://purl.org/dc/elements/1.1/"
   xmlns:cc="http://creativecommons.org/ns#"
   xmlns:rdf="http://www.w3.org/1999/02/22-rdf-syntax-ns#"
   xmlns:svg="http://www.w3.org/2000/svg"
   xmlns="http://www.w3.org/2000/svg"
   xmlns:sodipodi="http://sodipodi.sourceforge.net/DTD/sodipodi-0.dtd"
   xmlns:inkscape="http://www.inkscape.org/namespaces/inkscape"
   id="svg2"
   height="178.50658"
   viewBox="0 0 1058.6533 178.50657"
   width="1058.7029"
   version="1.1"
   inkscape:version="0.91 r13725"
   sodipodi:docname="balao_garagem.svg">
  <defs
     id="defs7" />
  <sodipodi:namedview
     pagecolor="#ffffff"
     bordercolor="#666666"
     borderopacity="1"
     objecttolerance="10"
     gridtolerance="10"
     guidetolerance="10"
     inkscape:pageopacity="0"
     inkscape:pageshadow="2"
     inkscape:window-width="640"
     inkscape:window-height="480"
     id="namedview5"
     showgrid="false"
     fit-margin-top="0"
     fit-margin-left="0"
     fit-margin-right="0"
     fit-margin-bottom="0"
     inkscape:zoom="0.31811376"
     inkscape:cx="516.77293"
     inkscape:cy="89.258575"
     inkscape:window-x="0"
     inkscape:window-y="27"
     inkscape:window-maximized="0"
     inkscape:current-layer="svg2" />
  <metadata
     id="metadata8">
    <rdf:RDF>
      <cc:Work
         rdf:about="">
        <dc:format>image/svg+xml</dc:format>
        <dc:type
           rdf:resource="http://purl.org/dc/dcmitype/StillImage" />
        <dc:title></dc:title>
      </cc:Work>
    </rdf:RDF>
  </metadata>
  <path
     id="path3338"
     d="m 84.492908,178.473 c -0.53625,-0.0259 -2.1225,-0.15116 -3.525,-0.27826 -30.717,-2.79 -57.83,-21.36 -71.7039999,-49.12 -4.9602,-9.9254 -7.8232,-19.971 -9.02080001,-31.65 -0.35751,-3.4865 -0.35751,-12.863 0,-16.35 1.19760001,-11.679 4.06070001,-21.725 9.02080001,-31.65 10.0909999,-20.193 27.3539999,-35.81 48.3819999,-43.77 7.2676,-2.7511 14.94,-4.5169 23.4,-5.3853 C 83.565308,0.01084 101.59291,0 529.32591,0 c 427.733,0 445.76,0.0108 448.28,0.26944 1.4438,0.14819 3.7202,0.43227 5.0588,0.63128 25.04799,3.724 47.20899,17.873 61.31899,39.149 8.1134,12.234 12.856,25.723 14.426,41.025 0.3575,3.4866 0.3575,12.863 0,16.35 -1.1976,11.679 -4.0607,21.725 -9.0209,31.65 -10.091,20.193 -27.354,35.81 -48.382,43.77 -7.18299,2.7191 -14.47099,4.4083 -23.24999,5.3885 -2.199,0.24554 -26.448,0.26027 -447.3,0.27171 -244.74,0.007 -445.410002,-0.009 -445.950002,-0.035 z"
     inkscape:connector-curvature="0" />
</svg>
