<?xml version="1.0" encoding="UTF-8" standalone="no"?>
<!-- Created with Inkscape (http://www.inkscape.org/) -->
<svg id="svg2" xmlns:rdf="http://www.w3.org/1999/02/22-rdf-syntax-ns#" xmlns="http://www.w3.org/2000/svg" height="188.55" viewBox="0 0 1068.75 188.55" width="1068.8" version="1.1" xmlns:cc="http://creativecommons.org/ns#" xmlns:dc="http://purl.org/dc/elements/1.1/">
 <metadata id="metadata8">
  <rdf:RDF>
   <cc:Work rdf:about="">
    <dc:format>image/svg+xml</dc:format>
    <dc:type rdf:resource="http://purl.org/dc/dcmitype/StillImage"/>
    <dc:title/>
   </cc:Work>
  </rdf:RDF>
 </metadata>
 <path id="path3338" d="m102.12 183.5c-0.53625-0.0259-2.1225-0.15116-3.525-0.27826-30.717-2.79-57.83-21.36-71.704-49.12-4.9602-9.9254-7.8232-19.971-9.0208-31.65-0.35751-3.4865-0.35751-12.863 0-16.35 1.1976-11.679 4.0607-21.725 9.0208-31.65 10.091-20.193 27.354-35.81 48.382-43.77 7.2676-2.7511 14.94-4.5169 23.4-5.3853 2.5194-0.2586 20.547-0.26944 448.28-0.26944s445.76 0.0108 448.28 0.26944c1.4438 0.14819 3.7202 0.43227 5.0588 0.63128 25.048 3.724 47.209 17.873 61.319 39.149 8.1134 12.234 12.856 25.723 14.426 41.025 0.3575 3.4866 0.3575 12.863 0 16.35-1.1976 11.679-4.0607 21.725-9.0209 31.65-10.091 20.193-27.354 35.81-48.382 43.77-7.183 2.7191-14.471 4.4083-23.25 5.3885-2.199 0.24554-26.448 0.26027-447.3 0.27171-244.74 0.007-445.41-0.009-445.95-0.035z"/>
</svg>
