<?xml version="1.0" encoding="UTF-8" standalone="no"?>
<!-- Created with Inkscape (http://www.inkscape.org/) -->
<svg id="svg2" xmlns:rdf="http://www.w3.org/1999/02/22-rdf-syntax-ns#" xmlns="http://www.w3.org/2000/svg" height="215.7" viewBox="0 0 139.35001 215.7" width="139.35" version="1.1" xmlns:cc="http://creativecommons.org/ns#" xmlns:dc="http://purl.org/dc/elements/1.1/">
 <metadata id="metadata8">
  <rdf:RDF>
   <cc:Work rdf:about="">
    <dc:format>image/svg+xml</dc:format>
    <dc:type rdf:resource="http://purl.org/dc/dcmitype/StillImage"/>
    <dc:title/>
   </cc:Work>
  </rdf:RDF>
 </metadata>
 <path id="path3338" d="m7.5553 198.01c1.3353-3.185 5.0173-10.871 7.7451-16.167 5.0784-9.86 9.6417-17.148 16.266-25.98 0.95913-1.2788 1.9535-2.7472 2.2097-3.2632 0.4066-0.81891 0.45493-1.0435 0.38026-1.767-0.16702-1.6183-1.699-3.6144-3.9313-5.1221-1.3196-0.8913-4.1128-2.2474-7.35-3.5683-5.2855-2.1568-8.0662-3.6576-9.2276-4.9803-1.7186-1.9574-1.6712-4.1278 0.16444-7.5321 0.86888-1.6114 1.8166-2.8952 3.2092-4.3475 2.8477-2.9696 6.0395-5.2072 13.504-9.4666 11.723-6.6897 15.398-9.5989 18.371-14.546 1.8234-3.0339 2.7441-7.1387 2.4321-10.843-0.12848-1.5257-0.13912-1.5302 1.072 0.44961 0.46722 0.76373 2.2461 3.5621 3.953 6.2187 4.5428 7.0701 5.1353 8.399 4.6223 10.368-0.2778 1.0666-0.59966 1.7048-1.8656 3.6994-1.7773 2.8003-1.6512 2.5542-0.99863 1.95 0.78691-0.72851 4.156-4.4312 5.5958-6.15 7.6468-9.1282 12.247-18.407 13.329-26.883 0.33353-2.614 0.22736-6.5487-0.23589-8.7421-1.0706-5.0693-3.4129-9.232-7.3032-12.979-1.9393-1.8679-3.6012-3.1142-6.2311-4.6726-0.92968-0.55092-1.8408-1.1508-2.0248-1.333-0.95366-0.94455-2.3808-6.6083-3.6544-14.502l-0.48994-3.0369 0.70256-1.0282c3.118-4.5633 16.072-16.145 22.121-19.779 1.8225-1.0946 2.9875-1.508 3.4908-1.2386 0.31873 0.17058 0.32183 0.20841 0.19399 2.3713-0.0715 1.2088-0.12669 4.0204-0.12276 6.2479 0.006 3.2309 0.0602 4.318 0.26974 5.3753 0.46366 2.3401 1.1664 3.6846 2.1381 4.0906 0.75622 0.31597 1.2674 0.25637 2.3236-0.27089 1.6586-0.82797 4.468-3.926 6.3838-7.0395l0.57765-0.93878 0.0509 0.59162c0.078 0.90638-0.25907 4.1817-0.58564 5.6916-1.1442 5.2903-3.493 9.2335-11.192 18.789-1.3466 1.6714-2.4484 3.1027-2.4484 3.1806 0 0.25151 1.3564 1.1863 2.1548 1.485 1.1112 0.41575 2.288 0.52521 3.5623 0.33133 2.6108-0.39724 5.0678-1.5528 9.1755-4.3152 1.6322-1.0976 3.0328-1.9957 3.1125-1.9957 0.18086 0 0.17916 0.54489-0.0105 3.375-0.65486 9.7715-2.5644 17.419-5.3193 21.302-1.1227 1.5827-2.3513 2.5273-3.8922 2.9926l-0.60815 0.18364 1.101 0.34205c0.95148 0.2956 1.3182 0.33156 2.7 0.26481 2.2735-0.10982 3.7061-0.65907 7.5183-2.8824 1.4825-0.86462 1.7293-0.95044 1.8412-0.64028 0.13089 0.36291-0.34106 2.5429-0.83547 3.8592-1.0538 2.8056-2.2419 4.2425-6.335 7.6616-1.6672 1.3927-3.4162 2.9562-3.8866 3.4744-0.93797 1.0334-2.1701 2.8317-2.9173 4.2579-0.26384 0.5036-1.0184 1.6173-1.6768 2.475-0.6584 0.85765-1.633 2.1265-2.1658 2.8197-0.59052 0.76837-0.96865 1.4052-0.96865 1.6312 0 0.3376 0.0433 0.36222 0.48226 0.27443 0.68502-0.13701 4.1713-1.5494 7.1249-2.8865 14.631-6.6237 36.108-18.268 40.915-22.184 0.4552-0.37077 0.82683-0.58897 0.82585-0.4849-0.001 0.10408-0.22036 0.5779-0.4875 1.053-2.7101 4.8193-15.132 17.57-27.345 28.07-12.392 10.653-22.603 17.567-29.165 19.75-3.5781 1.1898-5.5508 1.1018-7.3716-0.32881-0.30062-0.2362-0.58646-0.42945-0.6352-0.42945-0.0487 0 0.1797 0.35437 0.50763 0.7875 0.61081 0.80676 1.0492 1.8394 1.0492 2.4717 0 0.47474-0.37132 1.1687-0.7776 1.4533-0.18112 0.12686-0.29963 0.2578-0.26335 0.29096 0.67849 0.6204 4.0109 2.3198 6.591 3.3611 5.3335 2.1526 11.268 3.8121 27.225 7.6132 6.2697 1.4935 8.6878 2.3304 8.5959 2.975-0.17492 1.2272-10.227 2.1848-20.971 1.9979-16.15-0.28102-27.645-2.508-32.82-6.3581-0.60157-0.44759-1.361-1.2501-2.0916-2.2101-1.5678-2.0604-2.9301-3.3796-4.0866-3.9575-1.022-0.51073-1.4256-0.57168-2.013-0.30405-0.43859 0.19984-0.87926 1.038-0.81272 1.5458 0.0255 0.19488-0.93187 3.3243-2.1276 6.9543l-2.174 6.5999-1.7587 0.0521c-1.5383 0.0456-1.7976 0.0911-2.069 0.3628-0.40863 0.40917-0.23413 0.88481 0.63358 1.7269 0.65573 0.63636 1.9048 1.5582 1.9842 1.4644 0.0242-0.0286 0.29503-0.81134 0.60186-1.7395 0.65441-1.9796 0.37264-1.8646 3.2139-1.3106 6.599 1.2867 13.609 4.0445 14.607 5.7466 0.5988 1.0215 0.14764 1.4681-2.2326 2.2103-8.6128 2.6855-22.008 14.541-45.75 40.491-2.5663 2.805-4.8803 5.3012-5.1422 5.5471l-0.47617 0.44706 0.21888-0.52206zm59.823-72.39c0.47978-0.13462 0.87188-0.28649 0.87131-0.3375-0.0006-0.051-0.23111-0.2494-0.51232-0.44088-0.28122-0.19148-0.88311-0.73795-1.3375-1.2144-0.7386-0.77435-0.83517-0.83287-0.91062-0.55185-0.15765 0.58722-0.0932 2.4246 0.0915 2.6094 0.24473 0.24473 0.76088 0.22614 1.7977-0.0648zm-1.4311-4.8043c0.20537-0.89425 0.39611-1.7272 0.42386-1.8509 0.0277-0.12375 0.19018-0.8325 0.36096-1.575 0.38846-1.6889 0.43249-2.0814 0.2436-2.1717-0.18766-0.0898-0.96373 1.0737-1.6936 2.5389-0.48538 0.97444-0.55645 1.2537-0.55645 2.1861 0 0.81699 0.0856 1.2519 0.36293 1.8449 0.19962 0.42677 0.39046 0.74843 0.42409 0.7148 0.0336-0.0336 0.22918-0.79281 0.43456-1.6871zm-8.9173-86.676c0.003-0.2475 0.0367-0.33059 0.0747-0.18465 0.038 0.14595 0.0355 0.34845-0.006 0.45-0.0411 0.10156-0.0722-0.01785-0.0692-0.26535zm-0.15556-0.975c0-0.20625 0.0341-0.29062 0.0757-0.1875s0.0416 0.27188 0 0.375-0.0757 0.01875-0.0757-0.1875z"/>
</svg>
