<?xml version="1.0" encoding="UTF-8" standalone="no"?>
<!-- Created with Inkscape (http://www.inkscape.org/) -->

<svg
   xmlns:dc="http://purl.org/dc/elements/1.1/"
   xmlns:cc="http://creativecommons.org/ns#"
   xmlns:rdf="http://www.w3.org/1999/02/22-rdf-syntax-ns#"
   xmlns:svg="http://www.w3.org/2000/svg"
   xmlns="http://www.w3.org/2000/svg"
   xmlns:sodipodi="http://sodipodi.sourceforge.net/DTD/sodipodi-0.dtd"
   xmlns:inkscape="http://www.inkscape.org/namespaces/inkscape"
   id="svg2"
   version="1.1"
   inkscape:version="0.91 r13725"
   width="492.14999"
   height="494.10001"
   viewBox="0 0 492.14999 494.10001"
   sodipodi:docname="blackman.svg">
  <metadata
     id="metadata8">
    <rdf:RDF>
      <cc:Work
         rdf:about="">
        <dc:format>image/svg+xml</dc:format>
        <dc:type
           rdf:resource="http://purl.org/dc/dcmitype/StillImage" />
        <dc:title />
      </cc:Work>
    </rdf:RDF>
  </metadata>
  <defs
     id="defs6">
    <inkscape:path-effect
       effect="spiro"
       id="path-effect3536"
       is_visible="true" />
  </defs>
  <sodipodi:namedview
     pagecolor="#ffffff"
     bordercolor="#666666"
     borderopacity="1"
     objecttolerance="10"
     gridtolerance="10"
     guidetolerance="10"
     inkscape:pageopacity="0"
     inkscape:pageshadow="2"
     inkscape:window-width="1024"
     inkscape:window-height="702"
     id="namedview4"
     showgrid="false"
     inkscape:zoom="0.9552722"
     inkscape:cx="406.64475"
     inkscape:cy="247.05"
     inkscape:window-x="0"
     inkscape:window-y="27"
     inkscape:window-maximized="1"
     inkscape:current-layer="svg2" />
  <path
     style="fill:#a0a0a0;stroke:none;stroke-width:1px;stroke-linecap:butt;stroke-linejoin:miter;stroke-opacity:1"
     d="m -425.44523,320.8083 c -0.55413,1.06112 -1.34396,1.78515 -1.94726,1.78515 -0.56265,0 -0.395,0.62067 1.20898,4.50391 l 0.96875,2.34961 0.0469,-0.66406 c 0.0961,-1.41035 -0.14137,-8.23499 -0.27734,-7.97461 z m 3.22461,4.64648 0.0625,0.66602 c 0.0347,0.36595 0.10263,2.73865 0.15039,5.27343 l 0.0859,4.60938 -0.58203,0.0879 c -0.89217,0.1363 -1.34589,0.14818 -1.72656,0.043 -0.33171,-0.0917 -0.30279,-0.003 0.64844,1.86523 1.98464,3.89868 2.81374,5.05836 4.05273,5.67578 1.35994,0.67769 2.9398,0.32954 4.14844,-0.91406 0.71828,-0.73906 1.1683,-1.63023 1.25,-2.48047 0.088,-0.91623 -0.0241,-1.21182 -0.78516,-2.07812 -0.84676,-0.96381 -2.32979,-3.18633 -3.57617,-5.36133 -0.80445,-1.40383 -1.45314,-2.68524 -3.5039,-6.91992 l -0.22461,-0.4668 z"
     id="path4428"
     inkscape:connector-curvature="0" />
  <rect
     style="fill:#a0a0a0;fill-opacity:1"
     id="rect3582"
     width="4.2445011"
     height="5.5385561"
     x="-445.65152"
     y="309.608" />
  <rect
     style="fill:#a0a0a0;fill-opacity:1"
     id="rect3584"
     width="4.969172"
     height="12.940552"
     x="-446.06561"
     y="303.65536" />
  <rect
     style="fill:#a0a0a0;fill-opacity:1"
     id="rect3586"
     width="1.4493418"
     height="3.1574948"
     x="-444.09863"
     y="302.77539" />
  <rect
     style="fill:#a0a0a0;fill-opacity:1"
     id="rect3588"
     width="3.7786412"
     height="2.1222506"
     x="-447.9808"
     y="312.40317" />
  <ellipse
     style="fill:#a0a0a0;fill-opacity:1"
     id="path3590"
     cx="-445.31506"
     cy="315.50891"
     rx="2.6657536"
     ry="2.3292994" />
  <circle
     style="fill:#a0a0a0;fill-opacity:1"
     id="path3592"
     cx="-445.49622"
     cy="316.75119"
     r="2.3292994" />
  <ellipse
     style="fill:#a0a0a0;fill-opacity:1"
     id="path3594"
     cx="-443.45163"
     cy="304.74237"
     rx="2.9763269"
     ry="2.6916349" />
  <ellipse
     style="fill:#a0a0a0;fill-opacity:1"
     id="path3596"
     cx="-426.26657"
     cy="324.82611"
     rx="2.0963695"
     ry="5.5385561" />
  <ellipse
     style="fill:#a0a0a0;fill-opacity:1"
     id="path3598"
     cx="-422.25497"
     cy="333.39276"
     rx="3.2610192"
     ry="3.9080467" />
  <ellipse
     style="fill:#a0a0a0;fill-opacity:1"
     id="path3600"
     cx="-423.34198"
     cy="329.04471"
     rx="1.9669639"
     ry="2.8210404" />
  <ellipse
     style="fill:#a0a0a0;fill-opacity:1"
     id="path3602"
     cx="-423.70432"
     cy="326.24957"
     rx="1.7081529"
     ry="1.9410828" />
  <path
     style="fill:#000000;fill-opacity:0.97254902"
     d="m 221.75035,486.83097 c -17.0358,-5.25709 -19.44809,-6.2339 -24.13233,-9.77204 -7.09078,-5.35586 -23.44362,-20.28875 -40.89264,-37.34184 -14.15424,-13.83308 -15.50538,-15.52548 -21.47095,-26.89404 -7.22625,-13.77105 -8.72283,-17.55196 -10.01347,-25.2978 -1.87064,-11.22676 3.23254,-26.47401 11.71286,-34.99561 5.43937,-5.46584 16.21358,-10.82538 28.97516,-14.41345 8.52338,-2.39644 10.93909,-2.69307 14.12575,-1.7345 4.9773,1.49721 34.35621,18.19213 50.24323,28.55133 l 12.38763,8.07739 6.4484,-0.58471 c 8.65404,-0.78472 18.2937,-6.0271 25.60629,-13.92558 7.05049,-7.61536 17.65557,-21.6159 21.26415,-28.07236 6.08307,-10.88378 12.78483,-13.55877 29.20941,-11.65883 19.34513,2.23778 28.18924,1.28294 29.03204,-3.13438 0.16981,-0.88999 -1.22076,-3.47115 -3.09015,-5.7359 -5.01729,-6.07844 -46.8313,-43.60817 -48.58635,-43.60817 -2.0883,0 -5.83937,13.26835 -7.87671,27.86167 -1.86796,13.37995 -4.38577,20.43915 -12.19092,34.17962 -6.36424,11.20385 -15.28274,21.45789 -22.87343,26.29872 -8.59323,5.48018 -9.14678,5.49092 -18.22734,0.35371 -33.91917,-19.18935 -40.84253,-23.93709 -64.63367,-44.323 -7.54289,-6.46327 -17.35713,-14.15359 -21.80943,-17.08959 l -8.09509,-5.33818 -13.94344,0 c -7.66891,0 -18.8376,-0.76199 -24.81934,-1.69333 -20.743637,-3.22968 -20.975407,-3.2267 -31.552757,0.40547 -5.33797,1.83302 -10.635769,4.17474 -11.772879,5.20381 -3.90565,3.53457 -3.78491,8.36751 0.50759,20.31839 2.1807,6.07135 3.96491,11.49554 3.96491,12.05375 0,2.35248 -4.40444,0.73797 -7.45024,-2.731 -3.52927,-4.01962 -5.38108,-8.6206 -7.32399,-18.19703 -1.50376,-7.41197 -4.377011,-8.25176 -7.507541,-2.1943 -2.52435,4.88455 -1.90396,11.60713 1.90668,20.66081 2.616801,6.21724 2.799451,9.87586 0.50905,10.19646 -0.53887,0.0755 -1.72034,0.13714 -2.62548,0.13714 -0.90515,0 -2.0783,-0.0617 -2.607,-0.13714 -1.2151,-0.17336 -9.73487,-20.58469 -10.2747,-24.61573 -0.22153,-1.65421 -0.86979,-3.06274 -1.44057,-3.13007 -1.87834,-0.22155 -3.85966,5.02278 -3.17678,8.40858 1.58127,7.84016 1.76295,14.92733 0.42401,16.54065 -1.93509,2.33164 -2.58058,1.31097 -6.9868,-11.04802 -4.86714,-13.65179 -4.49325,-15.22896 5.94444,-25.07534 15.04766,-14.1952 25.785911,-20.63306 37.998581,-22.78113 9.091229,-1.59906 10.227929,-2.40022 7.570959,-5.33614 -3.43665,-3.79746 -10.054189,-2.93875 -24.54028,3.18439 -12.70776,5.37146 -18.8205,7.42654 -18.8205,6.32737 0,-1.15628 13.82099,-10.91706 27.425231,-19.3685 10.63824,-6.60885 17.200039,-9.79203 27.554949,-13.3671 13.379534,-4.61933 13.860784,-4.69899 30.853677,-5.10629 16.3826,-0.39268 17.72424,-0.26257 26.33153,2.55379 22.64828,7.41068 46.70934,23.70815 56.9268,38.55873 3.18146,4.62409 3.42018,4.74604 9.29067,4.74604 3.86015,0 7.57091,0.78851 10.32648,2.19429 6.87214,3.50592 7.31135,3.19512 10.46553,-7.40574 1.57101,-5.28002 5.62482,-18.47539 9.00845,-29.32304 6.34797,-20.35106 8.29547,-32.9724 6.01165,-38.96031 -1.00823,-2.64345 -1.50882,-2.26865 -16.00608,11.98392 -8.23089,8.092 -14.96528,14.2977 -14.96528,13.79045 0,-1.45232 9.2084,-18.10773 14.73314,-26.6481 2.75852,-4.26425 5.0155,-7.91358 5.0155,-8.10964 0,-0.19605 -6.08525,-0.35645 -13.52276,-0.35645 l -13.52277,0 -9.36226,-4.63918 c -15.24178,-7.55261 -27.73726,-21.27234 -38.24266,-41.98958 -6.25917,-12.3434 -9.12151,-37.4323 -6.45655,-56.592657 2.36438,-16.999241 11.88309,-36.618971 23.30994,-48.045811 5.61618,-5.616192 16.45848,-11.86939 24.8075,-14.307509 20.8005,-6.074261 46.35889,4.824857 62.63189,26.708735 3.41506,4.592552 6.23921,7.415603 6.97416,6.971423 0.6793,-0.41055 3.51577,-2.376633 6.30328,-4.369075 2.78752,-1.992442 5.62638,-3.622622 6.3086,-3.622622 0.77386,0 1.2404,2.296754 1.2404,6.106438 0,9.989885 3.1299,12.94646 8.43218,7.965229 5.2535,-4.935398 1.2771,4.628234 -6.53248,15.711308 -2.40062,3.40687 -4.02784,6.739455 -3.61605,7.405744 1.28337,2.076552 7.53874,1.306156 12.52096,-1.542055 l 4.77031,-2.727059 -0.76365,6.854576 c -0.83641,7.507725 -3.55654,14.786595 -6.40435,17.137535 -1.00322,0.82818 -1.82403,1.93904 -1.82403,2.46859 0,1.28534 4.65544,1.22417 8.15718,-0.10718 4.73485,-1.80019 3.42494,1.37036 -3.62864,8.78296 -7.48493,7.86587 -12.18374,15.32711 -9.65244,15.32711 0.87966,0 10.66214,-4.56688 21.73885,-10.14861 11.07671,-5.58173 20.6332,-10.3285 21.23663,-10.54837 0.60343,-0.21987 -3.54243,4.30585 -9.21301,10.05716 l -10.31017,10.45691 4.82443,0.55304 c 2.65343,0.30416 9.50011,1.06701 15.21486,1.6952 9.01053,0.9905 11.91382,1.88285 21.86133,6.71927 33.37719,16.22783 56.13006,33.83881 78.34457,60.63961 16.07092,19.38884 24.7269,33.02622 33.23899,52.36753 7.07596,16.0781 9.32891,23.61367 10.38294,34.72841 1.07044,11.28776 -0.42216,52.02652 -2.28479,62.36073 -1.30612,7.24657 -8.10019,28.8196 -10.71138,34.01156 -9.42446,18.73914 -43.59032,31.72519 -66.14266,25.14008 -3.27753,-0.95701 -8.79761,-2.99911 -12.26682,-4.538 -6.26488,-2.77899 -6.34192,-2.78489 -11.35761,-0.86938 -2.83252,1.08174 -8.49355,5.04916 -12.89241,9.03536 -4.31336,3.90873 -10.80477,9.37953 -14.42536,12.15734 -3.62058,2.77781 -10.1726,8.15495 -14.56005,11.9492 -8.47852,7.3322 -13.58958,10.35359 -22.97936,13.58414 -3.20524,1.10277 -9.89415,4.93165 -14.86427,8.50862 -10.95143,7.88171 -11.37883,8.10651 -24.72158,13.00243 -9.52146,3.49375 -12.03779,3.95164 -23.81229,4.33302 -10.91544,0.35355 -14.38468,0.0503 -20.29721,-1.77427 z M 154.27579,268.42698 c 0,-0.83637 -2.99162,-3.06933 -6.64806,-4.96215 -5.47659,-2.83506 -8.47322,-3.5787 -17.00579,-4.22021 -5.69674,-0.42829 -15.49304,-1.48518 -21.76956,-2.34866 -8.30772,-1.14292 -11.805613,-1.24316 -12.859483,-0.36852 -1.73692,1.44151 -8.094524,10.89983 -8.094524,12.04235 0,0.44329 12.713197,0.54585 28.251547,0.2279 17.83998,-0.36504 29.66671,-0.16333 32.09156,0.54731 4.58338,1.34325 6.03431,1.12252 6.03431,-0.91802 z"
     id="path4061"
     inkscape:connector-curvature="0" />
</svg>
