<?xml version="1.0" encoding="UTF-8" standalone="no"?>
<!-- Created with Inkscape (http://www.inkscape.org/) -->

<svg
   xmlns:dc="http://purl.org/dc/elements/1.1/"
   xmlns:cc="http://creativecommons.org/ns#"
   xmlns:rdf="http://www.w3.org/1999/02/22-rdf-syntax-ns#"
   xmlns:svg="http://www.w3.org/2000/svg"
   xmlns="http://www.w3.org/2000/svg"
   xmlns:xlink="http://www.w3.org/1999/xlink"
   xmlns:sodipodi="http://sodipodi.sourceforge.net/DTD/sodipodi-0.dtd"
   xmlns:inkscape="http://www.inkscape.org/namespaces/inkscape"
   id="svg2"
   version="1.1"
   inkscape:version="0.91 r13725"
   width="412.04999"
   height="342.60001"
   viewBox="0 0 412.04999 342.60001"
   sodipodi:docname="computer.svg">
  <metadata
     id="metadata8">
    <rdf:RDF>
      <cc:Work
         rdf:about="">
        <dc:format>image/svg+xml</dc:format>
        <dc:type
           rdf:resource="http://purl.org/dc/dcmitype/StillImage" />
        <dc:title></dc:title>
      </cc:Work>
    </rdf:RDF>
  </metadata>
  <defs
     id="defs6" />
  <sodipodi:namedview
     pagecolor="#ffffff"
     bordercolor="#666666"
     borderopacity="1"
     objecttolerance="10"
     gridtolerance="10"
     guidetolerance="10"
     inkscape:pageopacity="0"
     inkscape:pageshadow="2"
     inkscape:window-width="1024"
     inkscape:window-height="702"
     id="namedview4"
     showgrid="false"
     inkscape:zoom="0.68884996"
     inkscape:cx="206.02499"
     inkscape:cy="171.3"
     inkscape:window-x="0"
     inkscape:window-y="27"
     inkscape:window-maximized="1"
     inkscape:current-layer="svg2" />
  <image
     sodipodi:absref="/home/zz0/Pictures/garagemhacker/vector/computer.tiff"
     xlink:href="vector/computer.tiff"
     y="0"
     x="0"
     id="image10"
     preserveAspectRatio="none"
     height="342.60001"
     width="412.04999" />
  <path
     style="fill:#000000"
     d="m 83.137498,334.23755 c -6.062295,-0.0401 -6.1875,-0.0469 -6.1875,-0.33921 0,-0.16408 -0.01687,-0.31093 -0.0375,-0.32635 -0.150241,-0.11225 -8.046232,-0.28083 -19.162499,-0.40916 -13.438328,-0.15511 -20.255277,-0.35217 -21.45,-0.62004 -1.622512,-0.36379 -3.277932,-0.45898 -11.7,-0.67273 -4.908749,-0.12459 -9.182482,-0.2667 -9.497183,-0.31583 -0.323431,-0.0505 -0.648872,-0.2121 -0.748582,-0.37176 -0.09702,-0.15535 -0.261412,-0.28246 -0.365316,-0.28246 -0.364804,0 -0.788918,-0.59229 -0.788918,-1.10175 0,-0.31125 -0.113901,-0.60483 -0.3,-0.77325 -0.165,-0.14933 -0.3,-0.35402 -0.3,-0.45488 0,-0.10087 -0.09414,-0.26152 -0.209196,-0.35701 -0.139659,-0.11591 -0.24294,-0.68292 -0.310716,-1.70586 -0.122024,-1.84169 -0.165092,-2.01641 -0.525224,-2.13071 -0.452567,-0.14364 -0.624133,-0.89859 -0.818475,-3.60154 -0.162445,-2.25932 -0.230553,-2.64873 -0.597483,-3.41615 -0.4075421,-0.85234 -0.4172871,-0.94021 -0.6118826,-5.51698 -0.2020323,-4.75169 -0.256989,-5.09187 -0.8225953,-5.09187 -0.2228049,0 -0.2724525,-0.22251 -0.3566333,-1.59834 -0.1258976,-2.05763 -0.1261028,-19.23995 -2.55e-4,-20.85657 0.08506,-1.09262 0.1304382,-1.23494 0.4065222,-1.275 0.4800147,-0.0697 0.6488721,-1.39785 0.8066925,-6.3453 0.1026117,-3.21674 0.1930368,-4.44786 0.3470457,-4.725 0.5797918,-1.04333 0.6738658,-1.58165 0.8883868,-5.08353 0.122605,-2.00145 0.182185,-2.35214 0.447618,-2.63468 0.168404,-0.17925 0.306189,-0.37701 0.306189,-0.43947 0,-0.0624 0.09447,-0.208 0.20993,-0.32347 0.141572,-0.14157 0.245108,-0.78527 0.317961,-1.97679 0.09916,-1.62177 0.147993,-1.83548 0.594741,-2.6027 0.349982,-0.60105 0.516566,-1.11463 0.592984,-1.82823 0.05845,-0.54579 0.185724,-1.05523 0.282829,-1.13208 0.0971,-0.0768 0.446555,-0.18459 0.776555,-0.23941 1.28083,-0.21281 1.425013,-0.26472 1.427296,-0.51386 0.0047,-0.5164 0.274286,-0.6459 1.81178,-0.87033 1.216831,-0.17761 1.61325,-0.29491 1.798296,-0.53209 0.130554,-0.16733 0.535554,-0.37388 0.9,-0.459 0.420216,-0.0981 4.915459,-0.16358 12.287627,-0.17886 l 11.625,-0.0241 0.6,-0.365 c 0.752793,-0.45796 1.083405,-0.84709 1.207446,-1.42117 0.05348,-0.2475 0.229196,-0.55428 0.390485,-0.68175 0.243951,-0.19278 0.322158,-0.55215 0.465178,-2.1375 0.09456,-1.04816 0.225917,-1.90575 0.291908,-1.90575 0.06599,0 0.119983,-0.17199 0.119983,-0.3822 0,-0.21887 0.159643,-0.52335 0.37357,-0.7125 0.333003,-0.29444 0.397331,-0.53751 0.592353,-2.23838 0.226389,-1.97442 0.390525,-2.51692 0.761496,-2.51692 0.251313,0 0.302336,-0.19781 0.522335,-2.025 0.144817,-1.20279 0.209854,-1.39089 0.596397,-1.725 0.371554,-0.32115 0.448809,-0.52263 0.538002,-1.40316 0.09967,-0.98393 0.125436,-1.03704 0.59908,-1.23495 0.526872,-0.22014 0.554363,-0.2736 0.813471,-1.58205 0.151278,-0.76392 0.20994,-0.85367 0.610329,-0.93375 0.370641,-0.0741 0.442967,-0.16092 0.442967,-0.53163 0,-0.46965 0.331671,-0.91446 0.681862,-0.91446 0.115739,0 0.311732,-0.19589 0.435542,-0.43532 0.221343,-0.42802 0.252133,-0.43704 1.841352,-0.53944 1.325877,-0.0854 1.710564,-0.1664 2.141244,-0.45059 0.28875,-0.19053 0.744375,-0.39189 1.0125,-0.44746 0.268125,-0.0556 0.4875,-0.16317 0.4875,-0.23912 0,-0.0759 0.354375,-0.13863 0.7875,-0.1393 1.501534,-0.002 3.474115,-0.29588 3.8625,-0.57476 0.632977,-0.45451 0.874779,-0.49614 4.124999,-0.71005 2.382546,-0.15681 3.369273,-0.28298 4.05,-0.51788 1.307466,-0.45118 3.288773,-0.58509 8.775,-0.59308 2.68125,-0.004 5.019501,-0.0459 5.196114,-0.0933 0.278889,-0.0748 0.335003,-0.23436 0.426717,-1.21309 0.09578,-1.02207 0.14418,-1.14906 0.52023,-1.36488 0.402005,-0.23073 0.486135,-0.43613 0.819263,-2.00013 0.06055,-0.28428 0.204105,-0.41742 0.517655,-0.48014 0.353262,-0.0707 0.452384,-0.18546 0.533516,-0.61792 0.07862,-0.4191 0.185287,-0.54989 0.505575,-0.61991 0.712479,-0.15574 0.750816,-0.18508 0.853704,-0.65353 0.07142,-0.32516 0.188463,-0.46014 0.399006,-0.46014 0.469408,0 0.83556,-0.25961 0.937174,-0.66447 0.06991,-0.27857 0.225446,-0.39716 0.617255,-0.47066 0.288085,-0.054 0.523791,-0.15825 0.523791,-0.23157 0,-0.0733 0.09807,-0.1333 0.217942,-0.1333 0.398781,0 0.917546,-0.31548 1.063205,-0.64658 0.108717,-0.24712 0.326538,-0.35284 0.891802,-0.43284 1.1828,-0.1674 1.365336,-0.24082 1.537365,-0.61839 0.143565,-0.31509 0.344558,-0.3831 1.788216,-0.60507 1.535218,-0.23605 1.869178,-0.37848 2.033558,-0.86725 0.0236,-0.0702 0.56604,-0.17175 1.20541,-0.22574 0.63938,-0.054 1.1625,-0.15574 1.1625,-0.22614 0,-0.0704 0.27335,-0.12799 0.60745,-0.12799 0.59018,0 1.33421,-0.28308 1.79255,-0.68201 0.13282,-0.1156 1.17751,-0.29355 2.55,-0.43434 2.01603,-0.2068 2.36023,-0.28068 2.59012,-0.55593 0.31098,-0.37234 0.96383,-0.51154 3.09921,-0.66082 1.34834,-0.0942 1.60743,-0.15585 1.87644,-0.44612 0.35406,-0.38203 1.24056,-0.66871 2.07173,-0.66994 0.30938,0 0.5625,-0.0683 0.5625,-0.15084 0,-0.0825 0.23759,-0.15 0.52798,-0.15 0.32581,0 0.76518,-0.15795 1.14744,-0.4125 0.3407,-0.22688 0.69374,-0.45999 0.78452,-0.51803 0.0908,-0.058 0.62179,-0.1479 1.18002,-0.19969 0.92111,-0.0855 1.03538,-0.13368 1.23579,-0.52124 0.18226,-0.35244 0.38294,-0.46306 1.14864,-0.63313 0.60457,-0.13428 0.98403,-0.30566 1.08921,-0.49191 0.2817,-0.49886 0.47911,-0.64785 0.92602,-0.69884 0.34799,-0.0397 0.46881,-0.15505 0.6019,-0.57466 0.12525,-0.39491 0.28454,-0.56094 0.6428,-0.67001 0.32979,-0.10041 0.50158,-0.26188 0.55851,-0.525 0.14611,-0.67521 0.17477,-0.71101 0.64428,-0.80491 0.39181,-0.0784 0.46289,-0.16061 0.46289,-0.53562 0,-0.24366 0.093,-0.53606 0.20671,-0.64974 0.11369,-0.1137 0.25339,-0.41921 0.31043,-0.67892 0.059,-0.26839 0.22539,-0.51082 0.38561,-0.56167 0.15505,-0.0492 0.33059,-0.2379 0.39008,-0.41931 0.0595,-0.1814 0.10426,-1.76238 0.0995,-3.5133 l -0.009,-3.18348 -0.46286,-0.71652 c -0.25457,-0.39408 -0.53213,-0.79805 -0.6168,-0.89769 -0.0847,-0.0996 -0.15394,-0.34725 -0.15394,-0.55023 0,-0.59379 -0.15797,-0.8436 -0.53345,-0.8436 -0.19324,0 -0.5404,-0.19199 -0.77145,-0.42665 -0.59862,-0.60793 -1.27071,-0.74001 -4.3201,-0.849 -3.27787,-0.11715 -5.14013,-0.31912 -5.57834,-0.60504 -0.51614,-0.33675 -3.63123,-0.49932 -11.59666,-0.60516 -7.759324,-0.10309 -9.929828,-0.20887 -12.075004,-0.58846 -1.624377,-0.28743 -4.041505,-0.46781 -8.844023,-0.66 -2.981594,-0.11933 -3.62342,-0.18404 -3.766536,-0.37977 -0.09488,-0.12975 -0.232572,-0.23634 -0.305976,-0.23685 -0.07341,0 -0.335792,-0.10641 -0.583082,-0.23535 -0.294442,-0.15353 -1.278052,-0.29694 -2.85,-0.41553 -2.2698,-0.17126 -2.446257,-0.20741 -3.243642,-0.66465 -0.463792,-0.26595 -1.017909,-0.48354 -1.231372,-0.48354 -0.213462,0 -0.902634,-0.0765 -1.531494,-0.17006 -0.934931,-0.13905 -1.16676,-0.22792 -1.271619,-0.4875 -0.07053,-0.1746 -0.133551,-0.24994 -0.140045,-0.16744 -0.0065,0.0825 -0.07161,0.0555 -0.144708,-0.0599 -0.0731,-0.11544 -0.594822,-0.28568 -1.159387,-0.37827 l -1.026485,-0.16838 -0.168682,-1.12171 c -0.150197,-0.99879 -0.497638,-1.9109 -0.929866,-2.4411 -0.08099,-0.0993 -0.196865,-0.91883 -0.257492,-1.82106 -0.09621,-1.43174 -0.155415,-1.68915 -0.465411,-2.02346 -0.195348,-0.21067 -0.355179,-0.48684 -0.355179,-0.61371 0,-0.12685 -0.09253,-0.36379 -0.205618,-0.52653 -0.123902,-0.17829 -0.246812,-0.95163 -0.309269,-1.94587 -0.114961,-1.83011 -0.28291,-2.54698 -0.705616,-3.01183 -0.226575,-0.24918 -0.3279,-0.77376 -0.504258,-2.61069 -0.154932,-1.61376 -0.289788,-2.37519 -0.452516,-2.55501 -0.39369,-0.43501 -0.549322,-1.18369 -0.758667,-3.6496 -0.182526,-2.15 -0.234867,-2.40798 -0.547783,-2.7 -0.503696,-0.47007 -0.67773,-1.2497 -0.84221,-3.77288 -0.139891,-2.14599 -0.227118,-2.53756 -0.798369,-3.58393 -0.08526,-0.15617 -0.250569,-1.6031 -0.367362,-3.21541 -0.148155,-2.04524 -0.275701,-3.0024 -0.421894,-3.16607 -0.398766,-0.44643 -0.665807,-1.8941 -0.762677,-4.13459 -0.117375,-2.71476 -0.384942,-4.18944 -0.824797,-4.54582 -0.288717,-0.23393 -0.325227,-0.48714 -0.458387,-3.17918 -0.175971,-3.5575 -0.353284,-4.84834 -0.755341,-5.49889 -0.277067,-0.4483 -0.326954,-0.93903 -0.516467,-5.08041 -0.150627,-3.29165 -0.269091,-4.69859 -0.420148,-4.98994 -0.574526,-1.10811 -0.634275,-1.67809 -0.852323,-8.13076 -0.07667,-2.26875 -0.213141,-4.395 -0.30328,-4.725 -0.09014,-0.33 -0.203004,-0.76875 -0.250808,-0.975 -0.04781,-0.20625 -0.150892,-0.41677 -0.229081,-0.46782 -0.07819,-0.0511 -0.200853,-0.79356 -0.272583,-1.65 -0.175091,-2.090535 -0.365202,-18.130777 -0.227796,-19.219678 0.10459,-0.828843 0.125976,-0.8625 0.548044,-0.8625 0.457299,0 1.039206,-0.45055 1.039206,-0.804621 0,-0.183232 0.639888,-0.487327 1.625237,-0.772365 0.201774,-0.05837 0.41464,-0.286066 0.502173,-0.537165 0.128226,-0.36783 0.232899,-0.435849 0.67072,-0.435849 0.376152,0 0.629865,-0.117702 0.922826,-0.428115 0.452608,-0.479572 1.10946,-0.861198 1.694046,-0.984228 0.280872,-0.05911 0.429099,-0.219268 0.529731,-0.572368 0.117087,-0.410837 0.220423,-0.498089 0.637675,-0.538424 0.317891,-0.03073 0.792887,-0.288369 1.313606,-0.7125 0.48934,-0.398574 0.968563,-0.664365 1.197853,-0.664365 0.288023,0 0.424598,-0.112345 0.554298,-0.455961 0.09594,-0.254175 0.305918,-0.482349 0.474471,-0.515587 0.166301,-0.0328 0.50303,-0.102674 0.748289,-0.155286 0.245259,-0.05261 0.690078,-0.360125 0.988486,-0.68336 0.326068,-0.353196 0.737854,-0.626758 1.031989,-0.685585 0.348104,-0.06962 0.529271,-0.212181 0.627411,-0.493706 0.116063,-0.332935 0.302439,-0.438183 1.173161,-0.662487 0.907507,-0.233779 1.054125,-0.321018 1.188801,-0.707347 0.124192,-0.356261 0.240321,-0.440681 0.606204,-0.440681 0.413328,0 1.270261,-0.574045 1.738023,-1.164272 0.0825,-0.1041 0.45375,-0.240718 0.825,-0.303597 0.547042,-0.09265 0.684315,-0.179362 0.724134,-0.457401 0.02702,-0.188691 0.128274,-0.369568 0.225,-0.40195 0.09673,-0.03238 0.562378,-0.167576 1.034784,-0.300431 0.658626,-0.185226 0.903922,-0.335505 1.051918,-0.644452 0.14756,-0.308036 0.333819,-0.422717 0.791082,-0.487076 0.81965,-0.115363 1.55801,-0.531648 1.725813,-0.973006 0.102032,-0.268362 0.252383,-0.367868 0.556056,-0.368012 0.239219,-1.12e-4 0.773196,-0.247999 1.255683,-0.582924 0.462101,-0.320773 1.119543,-0.630046 1.4625,-0.687988 0.342666,-0.05789 0.62303,-0.165981 0.62303,-0.240194 0,-0.248761 1.11805,-0.840123 1.788259,-0.94585 0.365946,-0.05773 0.816042,-0.253278 1.004093,-0.436239 0.780763,-0.759633 0.924471,-0.85665 1.270231,-0.857532 0.199329,-4.5e-4 0.564916,-0.110966 0.812416,-0.245462 0.2475,-0.134494 0.634283,-0.340854 0.859518,-0.458574 0.225236,-0.117721 0.448593,-0.277263 0.496353,-0.354538 0.04776,-0.07728 0.260646,-0.140502 0.473081,-0.140502 0.711037,0 1.559374,-0.347402 1.852056,-0.758435 0.253359,-0.35581 0.423723,-0.418476 1.381726,-0.508248 1.003884,-0.09407 1.113291,-0.138213 1.345526,-0.542857 0.175498,-0.30579 0.369577,-0.44046 0.634765,-0.44046 0.210087,0 0.381977,-0.0675 0.381977,-0.15 0,-0.0825 0.172609,-0.15 0.383577,-0.15 0.777532,0 1.795605,-0.338613 2.103169,-0.699519 0.242258,-0.284271 0.54318,-0.398165 1.349996,-0.510951 1.35011,-0.188735 1.99122,-0.402138 2.51227,-0.836261 0.28962,-0.241306 0.6224,-0.3562 1.05,-0.362518 1.21329,-0.01793 2.48013,-0.344216 2.73186,-0.703623 0.15386,-0.219659 0.38997,-0.337128 0.67763,-0.337128 0.24283,0 0.4415,-0.05952 0.4415,-0.132258 0,-0.07274 0.58613,-0.181085 1.30253,-0.240759 1.37383,-0.11444 1.8772,-0.263217 2.37973,-0.703349 0.24275,-0.212616 0.77809,-0.305274 2.55,-0.441361 1.74375,-0.133925 2.33316,-0.234548 2.64916,-0.452261 0.22354,-0.154006 0.51485,-0.280013 0.64736,-0.280013 0.13252,0 0.37011,-0.06913 0.52799,-0.153624 0.15788,-0.08449 1.8393,-0.24999 3.73649,-0.367771 1.9346,-0.120104 3.59477,-0.291921 3.78035,-0.391244 0.54277,-0.290482 1.94307,-0.576307 2.85139,-0.582018 0.4675,-0.0029 0.8725,-0.06792 0.9,-0.144399 0.0294,-0.08183 3.30054,-0.167167 7.94828,-0.207363 4.34406,-0.03757 7.96699,-0.110769 8.05096,-0.162664 0.084,-0.0519 0.19505,-0.287304 0.24685,-0.523127 0.0696,-0.316758 0.21815,-0.464325 0.56873,-0.56487 0.37409,-0.107289 0.49604,-0.24118 0.57607,-0.632485 0.0569,-0.278039 0.30472,-0.672128 0.56347,-0.89591 0.25407,-0.219739 0.58948,-0.737025 0.74536,-1.149525 0.22951,-0.607381 0.37396,-0.777574 0.75964,-0.895011 0.32974,-0.100404 0.50153,-0.261901 0.55847,-0.525 0.14758,-0.682032 0.18159,-0.725535 0.64703,-0.827763 0.31381,-0.06893 0.46014,-0.190426 0.46014,-0.382086 0,-0.540846 0.33453,-1.04514 0.6933,-1.04514 0.27462,0 0.37752,-0.120262 0.50365,-0.588682 0.12756,-0.473753 0.24393,-0.607442 0.59601,-0.684771 0.32027,-0.07034 0.46194,-0.207438 0.52877,-0.511635 0.0611,-0.278468 0.26007,-0.496041 0.60298,-0.659568 0.28145,-0.134214 0.61992,-0.453252 0.75216,-0.708975 0.22424,-0.433616 1.72332,-1.961082 3.824,-3.896369 0.49252,-0.45375 0.99639,-1.005005 1.1197,-1.22501 0.12785,-0.228082 0.40833,-0.440448 0.65258,-0.494094 0.29145,-0.06401 0.49606,-0.247807 0.64011,-0.574992 0.1653,-0.375418 0.32491,-0.497356 0.72771,-0.555904 0.42682,-0.06204 0.53695,-0.156335 0.63745,-0.545799 0.0989,-0.383075 0.21827,-0.488952 0.64082,-0.568224 0.44899,-0.08423 0.53281,-0.169353 0.61897,-0.628676 0.0548,-0.292189 0.17552,-0.553975 0.26823,-0.581749 0.0927,-0.02777 0.34671,-0.08929 0.56447,-0.136718 0.25806,-0.0562 0.42832,-0.21538 0.48901,-0.457153 0.0685,-0.272894 0.24684,-0.412329 0.67479,-0.527567 0.33051,-0.089 0.85883,-0.425574 1.22345,-0.779424 0.35296,-0.342532 0.84792,-0.664953 1.0999,-0.716491 0.37689,-0.07708 0.48155,-0.192564 0.58995,-0.650952 0.11741,-0.49643 0.18336,-0.557498 0.60438,-0.559544 0.5727,-0.0028 0.77633,-0.123723 0.90536,-0.537717 0.0658,-0.211164 0.40627,-0.43563 1.03272,-0.680892 0.64972,-0.254376 0.99133,-0.483897 1.12095,-0.753141 0.13816,-0.287053 0.34159,-0.412078 0.78613,-0.483163 0.49404,-0.079 0.63564,-0.18153 0.80354,-0.581844 0.17452,-0.416096 0.33819,-0.525482 1.13854,-0.760989 0.78786,-0.231831 0.95868,-0.343775 1.08722,-0.7125 0.12898,-0.370023 0.2328,-0.437457 0.67341,-0.437457 0.3867,0 0.70176,-0.15158 1.22283,-0.588314 0.41322,-0.346341 0.93925,-0.631959 1.27899,-0.694428 0.45295,-0.08329 0.60882,-0.197196 0.72469,-0.52959 0.11901,-0.341407 0.30234,-0.468453 0.94601,-0.655572 0.43912,-0.127653 0.93619,-0.232096 1.10461,-0.232096 0.18221,0 0.38549,-0.161202 0.50192,-0.398027 0.19711,-0.400939 1.12602,-0.794619 1.88691,-0.799697 0.22248,-0.0015 0.38962,-0.129621 0.48034,-0.368254 0.14135,-0.371735 0.63537,-0.580529 1.84649,-0.780396 0.31335,-0.05171 0.66138,-0.226998 0.77622,-0.39096 0.31827,-0.45439 1.08336,-0.862412 1.62186,-0.864925 0.70375,-0.0033 1.61556,-0.358894 1.90537,-0.74311 0.19785,-0.262292 0.50979,-0.370614 1.45893,-0.506628 0.90416,-0.129567 1.39085,-0.2912 1.93842,-0.643763 0.578,-0.37215 0.9668,-0.493855 1.85615,-0.581012 1.35645,-0.132934 1.71018,-0.255705 2.14344,-0.743937 0.29653,-0.334153 0.51375,-0.390766 2.05656,-0.536026 1.92597,-0.181336 2.83648,-0.378147 3.06886,-0.663345 0.27275,-0.3347458 0.79472,-0.3868588 6.15613,-0.6146218 4.17264,-0.1772616 6.20424,-0.1912191 9.9,-0.068015 6.23817,0.2079586 6.84192,0.2801089 7.725,0.9231589 0.2724,0.198356 0.78507,0.301235 1.87373,0.376001 1.35058,0.09276 1.53798,0.14219 1.89592,0.500134 0.46517,0.465154 1.18035,0.955118 1.18035,0.808632 0,-0.05594 0.13242,0.01813 0.29427,0.164604 0.53331,0.482644 0.9057,1.395921 0.90615,2.222306 0,1.245248 0.31007,3.461905 0.51753,3.707881 0.10437,0.12375 0.2628,0.52875 0.35205,0.9 0.14204,0.59079 0.23084,1.349904 0.55025,4.703382 0.0382,0.400609 0.12759,0.805609 0.19873,0.9 0.38268,0.507691 0.6408,1.731618 0.79542,3.771618 0.0938,1.2375 0.23019,2.2725 0.30308,2.299999 0.0729,0.0275 0.13252,0.19725 0.13252,0.377222 0,0.179971 0.12512,0.562471 0.27803,0.85 0.35581,0.669074 0.44011,1.147745 0.69894,3.96862 0.11688,1.274019 0.27415,2.437395 0.34947,2.585278 0.51367,1.00857 0.63453,1.569896 0.77743,3.610677 0.12023,1.717019 0.25359,2.525562 0.59955,3.634941 0.34278,1.099127 0.4917,1.992953 0.64856,3.892599 0.12853,1.556663 0.2671,2.487026 0.37582,2.523263 0.0947,0.03157 0.1722,0.171758 0.1722,0.311526 0,0.139769 0.0911,0.387269 0.20253,0.549999 0.27126,0.396288 0.37395,1.051085 0.61818,3.941867 0.11366,1.345296 0.26762,2.526546 0.34214,2.625 0.38317,0.506242 0.64387,1.716538 0.78169,3.62901 0.20355,2.824575 0.30527,3.546283 0.54909,3.895876 0.11351,0.162731 0.20637,0.445623 0.20637,0.628647 0,0.183024 0.0603,0.370037 0.134,0.415584 0.0737,0.04555 0.17736,0.707656 0.23037,1.471354 0.24543,3.536196 0.40416,4.683901 0.67953,4.913539 0.40566,0.338301 0.56802,1.295033 0.89757,5.289044 0.0868,1.052724 0.21957,2.031474 0.29493,2.175 0.43498,0.828508 0.62629,1.872772 0.82008,4.476263 0.1173,1.575918 0.28158,2.993418 0.3651,3.15 0.46327,0.868683 0.65443,1.884619 0.84729,4.503232 0.23197,3.150017 0.31402,3.650321 0.64141,3.911082 0.30258,0.241004 0.45027,1.115664 0.63428,3.756017 0.18346,2.6327 0.2814,3.46174 0.45645,3.86436 0.39982,0.91957 0.62386,2.33628 0.81601,5.16011 0.13775,2.02421 0.29382,3.33258 0.4352,3.64803 0.41835,0.93352 0.61564,2.34442 0.83565,5.976 0.1021,1.68542 0.22441,2.62589 0.38038,2.925 0.12645,0.24248 0.23033,0.55899 0.23082,0.70336 0,0.14438 0.0611,0.2625 0.13467,0.2625 0.22007,0 0.28809,0.5325 0.46943,3.675 0.13678,2.37031 0.26458,3.37782 0.60888,4.8 0.33681,1.39126 0.47193,2.43014 0.59505,4.575 0.1692,2.9479 0.31272,4.20451 0.59107,5.175 0.35097,1.22371 0.4491,2.03255 0.6734,5.55 0.17383,2.72613 0.3195,3.96411 0.60006,5.1 0.20377,0.825 0.37227,1.75313 0.37443,2.0625 0.002,0.30938 0.0714,0.5625 0.15394,0.5625 0.0883,0 0.15128,0.53957 0.15309,1.3125 0.005,2.18553 0.28119,5.60745 0.52941,6.5625 0.47102,1.81235 0.51212,2.1659 0.67133,5.775 0.15448,3.50162 0.31767,5.02777 0.82599,7.72501 0.12438,0.66 0.32677,3.36 0.44974,6 0.12296,2.64 0.2942,5.10375 0.38051,5.475 0.0863,0.37125 0.22051,1.06944 0.29826,1.55155 0.0777,0.4821 0.17095,0.92448 0.20716,0.98307 0.12534,0.20279 -0.23491,1.44164 -0.5061,1.74038 -0.14977,0.165 -0.31968,0.57 -0.37755,0.9 -0.0651,0.37108 -0.32967,0.86781 -0.69352,1.30191 -0.32358,0.38605 -0.58832,0.82818 -0.58832,0.9825 0,0.35325 -0.28023,0.64059 -0.62472,0.64059 -0.29851,0 -0.57528,0.42687 -0.57528,0.88728 0,0.21387 -0.12513,0.33333 -0.4125,0.39379 -0.60957,0.12827 -0.85614,0.29244 -0.91614,0.61001 -0.0786,0.41583 -0.31848,0.65892 -0.65031,0.65892 -0.16072,0 -0.61567,0.27273 -1.011,0.60607 -0.46426,0.39147 -0.92527,0.63719 -1.30191,0.69389 -0.32073,0.0483 -0.73291,0.24283 -0.91596,0.43233 -0.18304,0.18948 -0.46992,0.38803 -0.6375,0.44122 -0.16758,0.0532 -0.30468,0.1539 -0.30468,0.2238 0,0.0699 -0.51103,0.17498 -1.13562,0.23351 -0.84364,0.079 -1.23894,0.19188 -1.5375,0.43882 -0.22104,0.18284 -0.62136,0.40722 -0.88962,0.49866 -1.07544,0.36659 -9.04261,0.53696 -16.36533,0.34998 -7.1182,-0.18175 -9.38788,-0.3397 -10.08888,-0.7021 -0.78879,-0.40779 -3.07555,-0.54432 -9.43537,-0.56333 l -6.37734,-0.019 -0.99633,0.54765 c -0.76356,0.41972 -1.24512,0.57216 -2.06131,0.65259 -0.92994,0.0916 -1.08864,0.15197 -1.25135,0.47573 -0.12288,0.24448 -0.4516,0.4629 -0.9651,0.64125 -1.03567,0.3597 -1.07197,0.3879 -1.21501,0.94386 -0.0782,0.304 -0.27539,0.55368 -0.53753,0.68067 -0.50551,0.24487 -0.99238,1.00686 -0.99315,1.55434 0,0.25581 -0.16605,0.55959 -0.45,0.825 -0.38272,0.35775 -0.47109,0.58707 -0.59536,1.54511 -0.17222,1.32766 -0.18267,5.12703 -0.0173,6.2923 0.0638,0.44952 0.19528,0.84375 0.29221,0.87606 0.23967,0.0799 0.63171,0.8634 0.84143,1.68164 0.14754,0.57564 0.23781,0.68623 0.61324,0.7513 0.34086,0.0591 0.47805,0.19301 0.60777,0.59334 0.0921,0.28437 0.25782,0.54714 0.36816,0.58392 0.32966,0.10989 0.70989,0.52454 0.872,0.95093 0.11476,0.30181 0.27196,0.41208 0.63862,0.44794 0.40314,0.0394 0.50712,0.1281 0.60741,0.51801 0.10706,0.41619 0.19859,0.48209 0.79362,0.57132 0.36995,0.0555 0.72437,0.185 0.78764,0.28782 0.25792,0.41925 1.21591,0.99542 1.65504,0.99542 0.3913,0 0.48717,0.0771 0.62857,0.50562 0.1548,0.469 0.23436,0.51889 1.09914,0.6891 1.295,0.25486 1.29564,0.25516 1.44792,0.65571 0.13278,0.34924 1.02367,0.69957 1.77901,0.69957 0.15776,0 0.45845,0.20716 0.66821,0.46036 0.30081,0.36311 0.57418,0.497 1.29399,0.6338 0.85767,0.16299 0.92623,0.20751 1.13916,0.73963 0.1599,0.39965 0.31789,0.56621 0.53707,0.56621 0.45179,0 1.7919,0.46164 1.7919,0.61726 0,0.2699 0.61158,0.73274 0.96821,0.73274 0.30153,0 0.3859,0.0944 0.46597,0.5212 0.0831,0.4431 0.17246,0.5352 0.5961,0.61469 0.43605,0.0818 0.5103,0.16441 0.59424,0.66126 0.0876,0.51876 0.14538,0.57568 0.66884,0.65938 0.50434,0.0807 0.58413,0.15143 0.66664,0.59127 0.0705,0.37605 0.21389,0.55256 0.57938,0.71343 l 0.48562,0.21377 -0.0492,3 c -0.0593,3.61234 0.18129,6.43263 0.59343,6.95773 0.15444,0.19674 0.28078,0.4416 0.28078,0.54413 0,0.10252 0.10125,0.27043 0.225,0.37314 0.12375,0.1027 0.225,0.3514 0.225,0.55267 0,0.20129 0.1046,0.68573 0.23243,1.07657 0.17899,0.54723 0.33417,0.74899 0.675,0.87765 0.35053,0.13231 0.44257,0.25789 0.44257,0.60385 0,0.28893 0.22853,0.73112 0.675,1.30608 0.44082,0.56769 0.675,1.01844 0.675,1.29921 0,0.34958 0.0981,0.47094 0.525,0.64931 0.39567,0.16531 0.525,0.30909 0.525,0.58363 0,0.42218 0.21441,0.63618 0.77951,0.77801 0.28017,0.0703 0.43072,0.22812 0.49444,0.51822 0.0504,0.22942 0.25686,0.57237 0.45884,0.7621 0.20196,0.18975 0.36721,0.41229 0.36721,0.49454 0,0.0822 0.11639,0.27814 0.25863,0.43531 0.14225,0.15719 0.32787,0.49725 0.4125,0.75572 0.10176,0.3108 0.27951,0.49936 0.52493,0.55686 0.26355,0.0617 0.41299,0.23734 0.51579,0.6061 0.16486,0.59144 0.32313,0.73862 0.79779,0.74187 0.32617,0.002 0.39934,0.13899 0.5229,0.9773 0.0243,0.165 0.19558,0.36658 0.38059,0.44796 0.30525,0.13428 1.08687,1.45735 1.08687,1.83981 0,0.0868 0.2025,0.22848 0.45,0.31476 0.36744,0.12808 0.45,0.24085 0.45,0.61467 0,0.43467 0.43496,1.0578 0.73836,1.0578 0.0761,0 0.21635,0.23625 0.31164,0.525 0.0953,0.28875 0.23553,0.525 0.31164,0.525 0.0761,0 0.13836,0.20076 0.13836,0.44614 0,0.34106 0.10293,0.49938 0.43695,0.67211 0.34794,0.17992 0.47016,0.38083 0.6,0.98623 0.0897,0.41816 0.16305,0.8904 0.16305,1.04945 0,0.15903 0.1617,0.3951 0.35933,0.52459 0.44587,0.29216 0.51075,0.5061 0.75531,2.4911 0.11581,0.94012 0.32509,1.8636 0.50991,2.25 0.42159,0.8815 0.59127,2.21163 0.71503,5.60538 0.0572,1.5675 0.16856,2.892 0.24755,2.94334 0.19449,0.12642 0.19575,10.63616 0.002,10.76252 -0.0823,0.0535 -0.18933,1.74709 -0.2478,3.91914 -0.1058,3.93054 -0.29831,6.44713 -0.53357,6.975 -0.11767,0.26401 -0.21345,0.59965 -0.40663,1.425 -0.0289,0.12375 -0.15138,1.483 -0.27206,3.02055 -0.24192,3.08262 -0.36105,4.02918 -0.53542,4.25445 -0.2567,0.3316 -0.57179,2.04153 -0.66338,3.6 -0.12259,2.0857 -0.30739,3.17451 -0.7657,4.51128 -0.23127,0.67458 -0.36386,1.39876 -0.36386,1.9875 0,0.50941 -0.0578,0.92622 -0.12847,0.92622 -0.0707,0 -0.17405,0.60352 -0.22973,1.34116 -0.10219,1.35374 -0.24048,1.96164 -0.63328,2.78384 -0.11825,0.2475 -0.27243,1.1157 -0.34263,1.92933 -0.13353,1.54765 -0.23151,1.73905 -0.89243,1.74337 -0.22222,0.002 -0.37993,0.11084 -0.4287,0.29733 -0.0424,0.16227 -0.20278,0.33491 -0.35634,0.38364 -0.87856,0.27885 -3.72355,0.37332 -15.36342,0.5102 -14.17103,0.16662 -23.30435,0.40111 -23.99999,0.61618 -1.05149,0.3251 -5.7572,0.4526 -21.825,0.59136 -9.36375,0.0809 -19.75875,0.19076 -23.1,0.2442 -3.34125,0.0534 -7.44583,0.11477 -9.12128,0.13629 -3.50304,0.045 -3.92872,0.0986 -3.92872,0.49472 0,0.26838 -0.38531,0.28294 -10.0125,0.37863 -9.25758,0.092 -23.095466,0.0874 -38.250002,-0.0128 z m 282.824992,0 c -1.26382,-0.0424 -1.4625,-0.0841 -1.4625,-0.3069 0,-0.5425 -0.89817,-0.64944 -6.525,-0.77686 -2.97,-0.0673 -14.81625,-0.088 -26.325,-0.046 -23.20209,0.0846 -31.58503,-0.0489 -32.925,-0.52419 -0.4125,-0.14632 -0.8175,-0.30838 -0.9,-0.36013 -0.20068,-0.1259 -1.38441,-0.25635 -3.79666,-0.41843 -1.09817,-0.0738 -2.08566,-0.20799 -2.19443,-0.29826 -0.10876,-0.0903 -0.23686,-0.35968 -0.28467,-0.59869 -0.0524,-0.26216 -0.21201,-0.47427 -0.40222,-0.53465 -0.17342,-0.055 -0.39419,-0.27984 -0.49061,-0.49956 -0.0964,-0.21972 -0.22318,-0.43468 -0.2817,-0.47769 -0.0585,-0.043 -0.21069,-0.583 -0.33817,-1.2 -0.14133,-0.68406 -0.33936,-1.21057 -0.50753,-1.34929 -0.31869,-0.26289 -0.56176,-1.14689 -0.70909,-2.57877 -0.0835,-0.81164 -0.16881,-1.04904 -0.44106,-1.22742 -0.35397,-0.23193 -0.38685,-0.37823 -0.69465,-3.09132 -0.0796,-0.70125 -0.26855,-1.51343 -0.41999,-1.80483 -0.41335,-0.79541 -0.61422,-1.94898 -0.61422,-3.52755 0,-0.84509 -0.0606,-1.41762 -0.15,-1.41762 -0.0889,0 -0.15,-0.55001 -0.15,-1.35 0,-0.7425 0.0575,-1.35 0.12771,-1.35 0.0702,0 0.16664,-0.79049 0.21423,-1.75664 0.0613,-1.24494 0.14736,-1.80202 0.29541,-1.9125 0.25289,-0.18868 0.63503,-1.32013 0.87651,-2.59519 0.14706,-0.77645 0.24581,-0.9717 0.56952,-1.12611 0.26742,-0.12755 0.40775,-0.32841 0.44249,-0.63339 0.0285,-0.25052 0.3091,-0.74399 0.63904,-1.12389 0.99513,-1.14587 1.03509,-1.19793 1.03509,-1.34843 0,-0.0804 0.18563,-0.24364 0.4125,-0.3628 0.22688,-0.11915 0.77238,-0.52589 1.21226,-0.90384 0.48945,-0.42059 0.94554,-0.68721 1.17552,-0.68721 0.27792,0 0.41905,-0.11463 0.54192,-0.44013 0.16494,-0.437 0.47256,-0.60389 1.1203,-0.60782 0.18563,-0.002 0.3375,-0.0696 0.3375,-0.15205 0,-0.0825 0.15188,-0.15104 0.3375,-0.1523 0.43286,-0.003 0.60345,-0.13111 0.81407,-0.61156 0.16167,-0.36881 0.25821,-0.39776 1.87195,-0.56148 1.19409,-0.12114 1.75166,-0.24074 1.86975,-0.40101 0.0925,-0.12563 0.49755,-0.32172 0.9,-0.43577 1.03364,-0.29292 7.4909,-0.41584 13.03173,-0.24808 4.58628,0.13885 4.67204,0.15039 5.83314,0.784 0.15573,0.085 1.50573,0.2174 3,0.29424 3.01208,0.15491 4.20743,0.35387 4.5894,0.76388 0.18882,0.20266 0.5744,0.29844 1.48392,0.36858 0.67584,0.0521 1.26423,0.15207 1.30752,0.22213 0.0433,0.0701 0.47054,0.12737 0.9494,0.12737 1.26609,0 2.44924,0.25773 2.71162,0.59067 0.23808,0.3021 2.09712,0.60804 3.70007,0.60891 0.79132,0 1.98058,0.40965 2.39506,0.82413 0.141,0.14098 0.50721,0.22629 0.97149,0.22629 0.40986,0 1.40067,0.0717 2.20179,0.15931 1.15896,0.12677 1.50408,0.22055 1.68905,0.45902 0.25342,0.32677 1.09495,0.57246 1.98004,0.57808 0.30938,0.002 0.5625,0.0624 0.5625,0.13422 0,0.0718 0.5376,0.17753 1.19466,0.23484 1.02078,0.089 1.23365,0.15663 1.4625,0.46439 0.23148,0.31128 0.4613,0.38151 1.69284,0.51732 2.65424,0.29271 2.71875,0.3076 3.09576,0.7144 0.32075,0.34608 0.54032,0.40632 2.04429,0.56088 1.46804,0.15087 1.78364,0.23459 2.45154,0.65034 0.53967,0.33594 0.95039,0.4772 1.3875,0.4772 0.34151,0 0.62091,0.0579 0.62091,0.12862 0,0.0708 0.41915,0.17244 0.93144,0.22599 0.76212,0.0797 1.00182,0.17442 1.31868,0.52136 0.35579,0.38953 0.52064,0.43749 2.02805,0.58993 0.90243,0.0913 1.66146,0.22796 1.68672,0.30375 0.16282,0.48849 0.49249,0.62289 2.04454,0.83357 1.44318,0.1959 1.67136,0.26761 1.95,0.61288 0.26981,0.33432 0.50594,0.41622 1.62807,0.56477 0.72188,0.0956 1.3125,0.22894 1.3125,0.29643 0,0.0675 0.12417,0.1227 0.27593,0.1227 0.15175,0 0.34983,0.16221 0.44016,0.36046 0.12312,0.27021 0.35631,0.40164 0.93145,0.525 0.42198,0.0905 0.94953,0.16479 1.17234,0.16509 0.46016,0 1.34879,0.49325 1.47281,0.81644 0.0517,0.13483 0.50019,0.28264 1.19998,0.39553 0.94472,0.1524 1.16322,0.24467 1.4142,0.59712 0.25302,0.35534 0.43826,0.43202 1.2549,0.51948 0.87927,0.0942 0.97929,0.14201 1.21614,0.58181 0.20958,0.38916 0.40352,0.51303 1.03199,0.65914 0.42564,0.099 0.91332,0.17993 1.08375,0.17993 0.17041,0 0.43845,0.14454 0.5956,0.32118 0.36239,0.40732 1.3635,0.87123 1.8894,0.87552 0.222,0.002 0.44945,0.0774 0.50541,0.16797 0.20916,0.33841 1.49019,1.03533 1.90311,1.03533 0.33894,0 0.46046,0.0918 0.5817,0.43968 0.11736,0.33664 0.31509,0.4948 0.84393,0.675 0.37985,0.12942 0.84647,0.23532 1.03691,0.23532 0.25395,0 0.40474,0.13996 0.56563,0.525 0.16559,0.3963 0.30893,0.525 0.58478,0.525 0.21162,0 0.7105,0.2841 1.18533,0.675 0.45096,0.37125 0.96015,0.675 1.13152,0.675 0.38364,0 0.78303,0.37864 0.78303,0.74235 0,0.33978 0.26601,0.56379 0.74904,0.63078 0.2777,0.0385 0.3936,0.16363 0.45,0.48583 0.0418,0.23867 0.19409,0.49179 0.33846,0.5625 0.14438,0.0707 0.38063,0.18597 0.525,0.25617 0.14438,0.0702 0.28409,0.30881 0.31047,0.53027 0.0264,0.22144 0.17826,0.484 0.3375,0.58345 0.15924,0.0994 0.28953,0.24003 0.28953,0.31242 0,0.0724 0.20906,0.36972 0.46457,0.66072 0.439,0.50001 0.45883,0.57534 0.36054,1.3698 -0.11862,0.95871 -0.27473,1.21571 -0.73847,1.21571 -0.41283,0 -0.68664,0.26916 -0.68664,0.675 0,0.41268 -0.27543,0.675 -0.70872,0.675 -0.22545,0 -0.39489,0.12147 -0.47937,0.34366 -0.17157,0.45128 -0.38605,0.60828 -1.28691,0.94208 -0.81214,0.30093 -1.0132,0.44778 -1.16619,0.85176 -0.0614,0.16219 -0.25689,0.2625 -0.51159,0.2625 -0.57756,0 -1.69722,0.45168 -1.69722,0.68466 0,0.42382 -0.46927,0.64152 -1.6102,0.74698 -1.33364,0.12327 -1.77992,0.26201 -2.2454,0.69801 -0.28245,0.26457 -0.63195,0.32994 -2.4,0.44888 -1.13817,0.0766 -2.4744,0.18585 -2.9694,0.24285 -0.82708,0.0952 -0.90367,0.13534 -0.94543,0.49516 -0.0427,0.36743 -0.10734,0.39741 -1.05,0.48644 -0.98531,0.0931 -13.99044,0.0816 -16.86707,-0.0149 z"
     id="path3338"
     inkscape:connector-curvature="0" />
</svg>
