<?xml version="1.0" encoding="UTF-8" standalone="no"?>
<!-- Created with Inkscape (http://www.inkscape.org/) -->

<svg
   xmlns:dc="http://purl.org/dc/elements/1.1/"
   xmlns:cc="http://creativecommons.org/ns#"
   xmlns:rdf="http://www.w3.org/1999/02/22-rdf-syntax-ns#"
   xmlns:svg="http://www.w3.org/2000/svg"
   xmlns="http://www.w3.org/2000/svg"
   xmlns:sodipodi="http://sodipodi.sourceforge.net/DTD/sodipodi-0.dtd"
   xmlns:inkscape="http://www.inkscape.org/namespaces/inkscape"
   id="svg2"
   version="1.1"
   inkscape:version="0.91 r13725"
   width="282.45001"
   height="275.25"
   viewBox="0 0 282.45001 275.25"
   sodipodi:docname="hat.svg">
  <metadata
     id="metadata8">
    <rdf:RDF>
      <cc:Work
         rdf:about="">
        <dc:format>image/svg+xml</dc:format>
        <dc:type
           rdf:resource="http://purl.org/dc/dcmitype/StillImage" />
        <dc:title></dc:title>
      </cc:Work>
    </rdf:RDF>
  </metadata>
  <defs
     id="defs6" />
  <sodipodi:namedview
     pagecolor="#ffffff"
     bordercolor="#666666"
     borderopacity="1"
     objecttolerance="10"
     gridtolerance="10"
     guidetolerance="10"
     inkscape:pageopacity="0"
     inkscape:pageshadow="2"
     inkscape:window-width="1024"
     inkscape:window-height="702"
     id="namedview4"
     showgrid="false"
     inkscape:zoom="9.4114863"
     inkscape:cx="68.812501"
     inkscape:cy="145.7892"
     inkscape:window-x="0"
     inkscape:window-y="27"
     inkscape:window-maximized="1"
     inkscape:current-layer="layer2" />
  <g
     inkscape:groupmode="layer"
     id="layer2"
     inkscape:label="head"
     style="display:inline"
     sodipodi:insensitive="true">
    <path
       style="fill:#f9f9f9;fill-opacity:0.97254902"
       d="m 172.28906,50.027344 c -3.55921,-0.0099 -7.11228,0.06672 -10.58398,1.005859 -7.13722,1.936598 -5.78468,1.690674 -12.94336,3.111328 -3.65746,1.281783 -7.24978,2.745562 -10.63672,4.666016 -6.51821,3.69593 -12.27766,8.790418 -19.61133,10.960937 -6.27575,1.900232 -12.60608,3.657064 -18.833982,5.716797 -1.258427,0.552805 -2.527402,1.077336 -3.828126,1.507813 -1.727219,0.571627 -1.837667,0.505486 -1.941406,0.517578 -0.05426,0.02028 -0.107876,0.04215 -0.162109,0.0625 -0.07675,0.04074 -0.163579,0.08877 -0.402344,0.224609 -0.874857,1.020947 -4.672201,1.432779 -5.091797,2.486328 -1.509469,0.991909 -2.477258,1.676552 -4.376953,2.105469 -3.628124,0.234159 -1.056848,-0.0791 -2.779297,0.503906 -0.207194,0.04404 -0.07612,0.01534 -0.220703,0.04687 a 104.18571,68.606196 82.299139 0 0 -4.191406,25.298836 c 0.792352,3.53129 1.537077,7.2195 3.894531,4.01758 -0.0865,-0.2525 -0.14093,-0.45467 -0.248047,-0.73438 -0.101877,-0.11486 -0.207324,-0.22808 -0.294922,-0.35157 -0.08581,-0.12098 0.237876,0.19941 0.291016,0.33789 0.002,0.005 0.0019,0.009 0.0039,0.0137 0.144864,0.16331 0.285047,0.32968 0.410157,0.50392 0.127479,-0.18439 0.255764,-0.37148 0.392578,-0.59571 0.573397,-0.93981 -0.188209,0.45851 0.488281,-1.07812 0.0038,-0.0155 0.0062,-0.0313 0.0098,-0.0469 0.01548,-0.15581 0.02675,-0.25535 0.04883,-0.48828 l -0.04102,0.45313 c -0.0025,0.0117 -0.0051,0.0235 -0.0078,0.0352 -9.85e-4,0.01 -9.84e-4,0.0216 -0.002,0.0312 0.0028,-0.006 0.0011,-0.005 0.0039,-0.0117 0.0038,-0.008 -0.0071,0.0268 -0.0059,0.0273 -0.04168,0.41432 -0.07684,0.68659 -0.128906,0.86914 0.02,0.2116 0.03372,0.42662 0.002,0.58593 -0.04364,0.21887 -0.08508,0.37681 -0.128906,0.57032 0.013,0.2225 0.02058,0.34544 0.02344,0.69726 -0.005,0.15884 -0.0034,0.31781 -0.0039,0.47657 0.293765,0.85908 0.311288,1.31704 0.207031,2.04296 0.0014,0.0352 0.0025,0.0703 0.0039,0.10546 0.0058,0.26114 -0.0032,0.52206 -0.002,0.78321 0.0011,0.22024 1.07e-4,0.44187 0,0.66211 l -0.291015,0.45898 c -0.07694,0.37907 -0.264697,1.01754 -0.394531,1.51953 0.08691,-0.14399 0.03559,0.0116 -0.06836,0.27344 -0.0373,0.43088 -0.169691,0.72568 -0.408203,1.47461 -0.0051,0.0292 -0.01545,0.0816 -0.0293,0.14453 0.07245,-0.20346 0.130553,-0.33389 0.134766,-0.16992 0.0069,0.2703 -0.126681,0.51586 -0.259766,0.76172 -0.03224,0.11344 -0.125067,0.35437 -0.117187,0.25976 0.0018,-0.0213 0.01458,-0.0399 0.01953,-0.0605 -0.01665,0.0354 -0.03857,0.0695 -0.05273,0.10547 -0.01905,0.0948 -0.05244,0.20006 -0.08398,0.30468 -0.0019,0.0169 -0.0084,0.0508 -0.0078,0.0586 -0.0028,0.003 -0.01,0.0133 -0.01367,0.0176 0.0086,-0.0264 0.01374,-0.0505 0.02148,-0.0762 0.0041,-0.0373 0.03688,-0.15765 0.06055,-0.25781 4.73e-4,-0.001 0.0015,-0.003 0.002,-0.004 0.0043,-0.0183 0.0241,-0.0845 0.0293,-0.10546 5.97e-4,-0.003 0.0014,-0.006 0.002,-0.01 -0.01854,0.0362 -0.04419,0.0872 -0.03516,0.0644 0.01217,-0.0306 0.03284,-0.0985 0.04687,-0.13867 0.0076,-0.0514 0.01658,-0.10413 0.02148,-0.1543 -0.02706,0.0877 -0.05388,0.17563 -0.08008,0.26368 -0.03547,0.25854 -0.110708,0.68403 -0.15625,0.88867 -0.0096,0.043 -0.0298,0.083 -0.04297,0.125 -0.08658,0.51578 -0.193186,0.99537 -0.242188,0.91211 -0.0272,0.0992 -0.04793,0.20079 -0.08594,0.29687 -0.07001,0.17698 -0.162647,0.34103 -0.263671,0.50196 -0.04176,0.082 -0.07039,0.14568 -0.113282,0.23046 -0.03881,0.1131 -0.09306,0.29793 -0.111328,0.32618 -0.0043,0.007 -0.0055,0.009 -0.0098,0.0156 -0.03683,0.14553 -0.286953,0.52659 -0.232422,0.38672 0.0107,-0.0274 0.04274,-0.087 0.05664,-0.11914 -0.08807,0.13629 -0.161066,0.25057 -0.234375,0.36328 -0.0148,0.043 -0.01405,0.0357 -0.0293,0.0801 -0.03074,0.0354 -0.08887,0.11149 -0.130859,0.16406 -0.470007,0.7139 -0.660371,0.93723 -1.066406,1.23828 0.0053,0.12547 0.01289,0.25132 0.02344,0.37696 7.59e-4,0.0386 -5.95e-4,0.0238 0,0.0508 l 0.03711,0.0566 c 0.07604,0.3356 0.138801,0.67365 0.228515,1.00586 0.01523,0.0564 -0.01472,-0.11838 -0.0039,-0.17578 0.0057,-0.0305 0.01454,0.0611 0.01953,0.0918 0.04367,0.26798 0.05284,0.52621 0.03906,0.79688 -0.01196,0.16561 -0.0033,0.33213 -0.002,0.49804 -2.35e-4,0.10827 -1.2e-5,0.21624 0,0.32422 0.197163,0.41467 0.318359,0.94612 0.318359,1.59961 l 0,1.48828 0,0.49805 c 0.06971,0.15471 0.118183,0.31721 0.181641,0.47461 -0.0039,-0.017 -0.0079,-0.0338 -0.01172,-0.0508 0.0015,-0.003 0.0045,-0.0107 0.0059,-0.008 0.05364,0.11638 0.101045,0.23413 0.152344,0.35156 0.09438,0.25421 0.120229,0.5043 0.117188,0.75586 0.105878,0.34003 0.119522,0.69434 0.08984,1.05664 -0.0034,0.0409 -0.02101,0.16254 -0.0098,0.12305 0.01201,0.21261 0.0076,0.42584 0.0059,0.63867 -9.94e-4,0.20742 -2.7e-5,0.41562 0,0.62304 -1.43e-4,0.28335 -2.7e-5,0.56625 0,0.84961 1.5e-5,0.27288 10e-7,0.54548 0,0.81836 l 0,0.65821 0,0.2207 c 0.02477,-0.0243 0.0087,-0.002 0.132813,-0.10547 0.330595,-0.2753 0.659786,-0.55661 1.042968,-0.75781 3.16637,-1.66253 5.06101,1.15004 2.003907,3.00586 -0.04915,0.0298 -0.404834,0.23773 -0.503907,0.31836 -0.01272,0.0104 -0.01312,0.0321 -0.02539,0.043 -0.131516,0.11656 -0.26581,0.22969 -0.404297,0.33788 -0.112234,0.0877 -0.229258,0.16919 -0.34375,0.2539 -0.519205,0.29728 -0.449655,0.25636 -0.570313,0.30664 -0.03341,0.0591 -0.125362,0.0966 -0.189453,0.13672 -0.06354,0.0398 -0.131566,0.0716 -0.197265,0.10742 0.0022,0.0622 0.01172,0.11708 0.01172,0.18164 l 0,0.0781 c 8.39e-4,0.003 0.0031,0.005 0.0039,0.008 0.07012,0.24399 0.08584,0.49982 0.128906,0.75 -0.04567,0.23554 -0.03232,0.43868 -0.02734,0.66992 0.0047,0.23962 -4.7e-5,0.47911 0,0.71875 6.4e-4,0.2152 1.06e-4,0.43128 0,0.64649 -5.5e-5,0.21198 0,0.42277 0,0.63476 l 0,0.63672 0,0.39258 c 0.02843,0.0772 0.06298,0.15211 0.08008,0.23242 0.08562,0.40207 0.055,0.51579 0.02539,0.875 -0.01737,0.11293 -0.0041,0.11919 0,0.25 0.01744,0.55796 -0.06272,1.02174 -0.199219,1.41016 a 104.18571,68.606196 82.299139 0 0 0.285156,1.18945 c 0.632892,-0.19566 0.743921,0.33819 0.63086,1.17578 0.437816,0.23047 0.863253,0.47987 1.269531,0.76368 0.273298,0.19091 -0.07753,0.66229 -0.109375,0.99414 -0.08215,0.85597 -0.08248,1.71011 -0.06641,2.5664 0.191349,-0.14852 0.366039,-0.31103 0.511719,-0.5 0.654076,-3.34956 0.212794,-0.29271 0.06836,-0.0801 -0.01986,0.0292 -0.04691,0.0523 -0.06836,0.0801 -0.05725,0.29316 -0.07065,0.3278 -0.146485,0.73047 l -0.351562,0.42383 c 0.0043,0.15569 0.0053,0.31094 0.0098,0.4668 0.01186,0.29342 0.01401,0.50134 0.02148,0.74218 a 104.18571,68.606196 82.299139 0 0 5.486328,16.25391 c 1.262332,-0.17609 2.496077,-0.35566 3.771484,-0.53711 0.161825,-0.15072 0.318478,-0.30796 0.490235,-0.44727 0.636431,-0.51623 1.394561,-0.86399 2.048828,-1.35742 0.176335,-0.13299 0.283849,-0.33859 0.425781,-0.50781 l 0.316406,-0.23828 c -0.616392,0.11531 -1.235609,0.2196 -1.859375,0.30078 -0.260792,0.034 -0.667891,0.14405 -1.039062,0.22852 -0.06586,0.0279 -0.133622,0.0517 -0.199219,0.0801 -0.01774,-0.009 -0.04041,-0.0148 -0.05859,-0.0234 -0.44811,0.0818 -0.792258,0.076 -0.699219,-0.24805 -1.359437,-0.38191 -3.141074,-0.48793 -3.207031,-1.7168 -0.286914,-5.34558 1.408429,-6.11543 3.753906,-6.50586 -0.04086,-0.0462 -0.06352,-0.10108 -0.03711,-0.17773 0.260851,-0.75697 1.196997,-1.07015 1.851562,-1.53125 4.385368,-3.08916 8.047212,-3.50655 13.261722,-4.53906 0.56425,-0.11173 1.13047,-0.21363 1.69531,-0.32227 11.1395,-6.53422 22.22388,-13.17525 33.5586,-19.36133 0.83332,-0.94822 1.67072,-1.89289 2.49218,-2.85156 3.75374,-4.38072 7.31359,-8.90821 11.08985,-13.26953 4.20095,-4.44669 8.84711,-6.79022 14.78711,-8.22461 2.42699,-0.58607 4.93176,-0.77881 7.38476,-1.24414 0.066,-0.0125 0.1313,-0.0283 0.19727,-0.041 1.42139,-0.64808 2.99196,-1.33312 4.88672,-2.12109 2.56045,-1.06481 13.35098,-4.96449 16.38281,-6.10547 2.03527,-0.76594 4.03193,-1.6374 6.08594,-2.35156 1.533,-0.533 3.1122,-0.92436 4.66797,-1.38672 0.0569,-0.005 0.11477,-0.017 0.17187,-0.0234 a 104.18571,68.606196 82.299139 0 0 -6.66015,-18.687493 c -6.6e-4,-0.0015 -10e-4,-0.0024 -0.002,-0.0039 -0.009,-0.02026 9.5e-4,0.0043 -0.01,-0.02539 a 104.18571,68.606196 82.299139 0 0 -0.0469,-0.119141 c -0.0106,-0.01079 -0.0224,-0.02057 -0.0332,-0.03125 0.005,-1.66e-4 0.019,0.0014 0.0156,-0.002 -0.10495,-0.105917 -0.22588,-0.189215 -0.26757,-0.341797 -0.21764,0.02704 -0.4961,-0.0975 -0.4961,-0.435546 l 0,-0.337891 c -0.0774,-0.08753 -0.13169,-0.192235 -0.1914,-0.292969 -0.007,7.76e-4 -0.015,0.0034 -0.0176,0.002 -0.006,-0.003 -0.009,-0.0075 -0.0137,-0.01172 -0.006,-8.64e-4 -8.1e-4,-0.0011 -0.01,-0.002 -0.003,-0.0049 -0.009,-0.0085 -0.0117,-0.01367 l 0.002,0 c -0.003,-0.005 -0.007,-0.0064 -0.006,-0.0078 7.9e-4,-7.58e-4 0.005,-0.0015 0.004,-0.002 -0.002,-0.0011 -0.005,6e-4 -0.008,0 0.0113,-0.0048 -0.006,7.87e-4 -0.0273,-0.0078 -0.01,-0.004 -0.016,-0.01507 -0.0234,-0.02539 8e-5,0.0056 -5.9e-4,0.0065 0,0.01367 0.003,0.02893 0.003,0.05938 0.008,0.08789 0.005,0.0103 0.0244,0.03339 0.0234,0.03906 -0.002,0.01168 -0.0204,-0.01584 -0.0234,-0.02734 -9.1e-4,-0.0037 6.5e-4,-0.0079 0,-0.01172 -0.0213,-0.0418 -0.0622,-0.11336 -0.0937,-0.183593 -0.003,-0.0045 -0.007,-0.0083 -0.01,-0.01367 -0.003,-0.007 -8.5e-4,-0.0058 -0.002,-0.0078 -0.008,0.01317 -0.006,0.03162 -0.0176,0.04102 -0.01,0.0077 -0.0223,0.01342 -0.0332,0.01953 -0.0307,0.01235 -0.0627,0.0346 -0.0977,0.02734 -0.01,-0.002 -0.0157,-0.0053 -0.0234,-0.0098 -0.0361,-0.04104 -0.007,-0.0021 -0.0273,-0.04297 l -0.002,0.002 c -0.0103,-0.01425 -0.0148,-0.03173 -0.0234,-0.04687 -0.0121,-0.01561 -0.0163,-0.03566 -0.0254,-0.05273 -0.001,-0.0024 -0.002,-0.0037 -0.004,-0.0059 -0.003,-0.0068 -0.006,-0.0147 -0.008,-0.02148 -0.003,-0.0092 -0.006,-0.01818 -0.008,-0.02734 -0.0164,0.0017 -0.0318,0.0059 -0.0469,-0.0059 -0.006,-0.0049 -1.9e-4,-0.01238 -0.004,-0.01758 -0.0292,0.02889 -0.0614,0.05623 -0.0996,0.07227 -0.0549,0.02302 -0.0705,-0.01063 -0.0508,-0.04297 -0.0126,0.009 -0.0211,0.01565 -0.043,0.01758 -0.007,6.58e-4 -0.014,-3.57e-4 -0.0215,0 -10e-4,4.8e-5 -0.003,0.0017 -0.004,0.002 -0.007,0.002 -0.0163,0.0029 -0.0234,0.0039 0.006,-0.0023 0.0241,-0.0014 0.0195,-0.0059 -0.0182,-0.0181 -0.0477,-0.0235 -0.0664,-0.04102 -0.004,-0.0042 0.003,-0.01158 0.004,-0.01758 8.6e-4,-0.0051 0.002,-0.01046 0.002,-0.01563 4.5e-4,-0.0051 -0.001,-0.01065 0,-0.01563 0.003,-0.01058 0.008,-0.02095 0.0117,-0.03125 0.004,-0.0077 0.007,-0.01608 0.0117,-0.02344 0.0119,-0.01816 0.0239,-0.02801 0.0371,-0.04492 0.0105,-0.01349 0.0185,-0.02825 0.0273,-0.04297 -0.004,-0.0062 -0.01,-0.01144 -0.0137,-0.01758 -6.1e-4,0.0015 -0.002,0.0023 -0.002,0.0039 -1.6e-4,0.002 0.005,0.02028 0.008,0.01367 -0.006,-0.0062 -0.0101,-0.01445 -0.0156,-0.02148 -0.007,0.0022 -0.0144,0.0047 -0.0215,0.0078 1e-4,-0.0021 -0.006,0.0108 -0.004,0.0078 -0.001,0.0063 -0.002,0.01361 -0.008,0.01367 -0.0243,2.71e-4 -0.0471,-0.01244 -0.0703,-0.01953 -4.9e-4,-0.0043 -0.001,-0.0094 -0.002,-0.01367 -5.6e-4,-0.0031 -0.002,-0.0067 -0.002,-0.0098 0.003,-0.01399 0.0121,-0.01884 0.0176,-0.02734 -0.005,-0.0083 -0.008,-0.01746 -0.0137,-0.02539 0.008,0.0088 -5.8e-4,-0.0053 -0.006,-0.01563 -0.004,-0.0046 -0.0103,-0.01363 -0.0117,-0.01758 -0.004,-0.0018 -0.007,-0.0048 -0.01,-0.0078 -0.0175,-0.02004 -0.0124,-0.01812 -0.0176,-0.0332 -0.002,-0.0062 -0.003,-0.0113 -0.004,-0.01758 l 0.002,-0.002 c -8.1e-4,-0.0019 -0.006,-0.0046 -0.004,-0.0039 l -0.002,-0.002 c -0.016,-0.01763 -0.0186,-0.01634 -0.0293,-0.03711 -0.001,-0.0027 -0.001,-0.0069 -0.002,-0.0098 -0.002,-9.91e-4 -0.007,-0.0025 -0.0137,-0.01367 -0.004,-0.0067 -0.003,-0.01369 -0.004,-0.02148 l -0.002,-0.002 c -0.003,-0.0038 -0.007,-0.0092 -0.01,-0.01367 -0.002,-0.0038 -0.0131,-0.03745 -0.0137,-0.04297 -0.001,-8.08e-4 1.1e-4,3.48e-4 -0.006,-0.0078 -0.002,-0.0031 -0.004,-0.0064 -0.006,-0.0098 -0.0227,-0.03163 6.2e-4,0.0043 -0.0156,-0.02148 0.001,-0.0069 -0.001,-3.18e-4 -0.0117,-0.01563 -0.002,-0.0034 -0.004,-0.0062 -0.006,-0.0098 l 0,-0.002 c -0.003,-0.0042 -0.005,-0.0077 -0.008,-0.01172 -0.001,-0.0022 -0.003,-0.0056 -0.004,-0.0078 -0.003,-0.0015 -0.011,-0.0092 -0.0117,-0.0098 -0.0118,-0.01393 -0.0296,-0.02806 0,-0.0039 -0.015,-0.0089 -0.028,-0.0149 -0.041,-0.03125 -0.001,-0.0014 -7.7e-4,-0.0045 -0.002,-0.0059 l -0.002,0 0,-0.002 c -0.004,-0.002 -0.0101,-0.0052 -0.0137,-0.0078 -0.006,-0.0046 -0.0191,-0.01934 -0.0234,-0.02539 -0.007,-0.01042 -0.007,-0.0087 -0.008,-0.01563 -0.0156,-0.0065 -0.0242,-0.01173 -0.0352,-0.0293 10e-4,0.001 0.005,9.66e-4 0.004,0 -0.0144,-0.0155 -0.0201,-0.02017 -0.0254,-0.0332 l 0,-0.002 -0.002,0 c -0.003,-0.0029 -0.007,-0.005 -0.01,-0.0078 l 0,-0.002 c -0.006,-0.0061 -0.0172,-0.01642 -0.002,-0.0039 -0.003,-0.0019 -0.005,-0.004 -0.008,-0.0059 0.001,0.001 -0.002,-0.0014 -0.004,-0.002 -0.005,-0.0033 -0.0107,-0.0058 -0.0156,-0.0098 -0.0116,-0.0092 -0.0132,-0.02382 -0.0176,-0.03711 l -0.002,-0.002 c -0.001,-0.0012 -0.001,-0.0034 0,-0.0039 -0.009,-0.0061 -0.005,8.04e-4 -0.0234,-0.02344 0.005,0.0012 0.001,1.04e-4 -0.004,-0.0098 -0.004,-0.0071 -0.0147,-0.01807 -0.0156,-0.02734 -0.003,-0.0035 -0.007,-0.0082 -0.01,-0.01172 0.002,0.0014 0.005,0.003 0.004,0.002 -0.0404,-0.04176 -0.01,-0.0075 -0.0254,-0.03125 -0.0195,-0.01857 -0.0193,-0.01161 -0.0273,-0.03125 l 0,-0.002 c -0.0192,-0.03019 0.0174,0.02037 -0.0137,-0.01953 -0.003,-0.0041 -0.0128,-0.01493 -0.008,-0.01367 0.008,0.002 0.0113,0.01223 0.0176,0.01758 0.001,1.04e-4 0.003,-1.05e-4 0.004,0 -0.0422,-0.02611 -0.034,-0.01118 -0.041,-0.04883 0.002,0.0044 0.005,0.0094 0.008,0.01367 -0.004,-0.0035 -0.008,-0.0063 -0.0117,-0.0098 -0.001,-0.0022 -0.003,-0.0054 -0.004,-0.0078 -0.004,-0.0042 -0.008,-0.0074 -0.0117,-0.01172 -0.009,-0.01014 -0.013,-0.01708 -0.0176,-0.0293 -0.001,-0.0022 -0.006,-0.0066 -0.004,-0.0078 -0.001,-8.74e-4 -0.003,-9.07e-4 -0.004,-0.002 -0.0437,-0.04239 0.0129,0.0069 -0.0176,-0.02148 -0.012,-0.01309 -0.0271,-0.02797 -0.0312,-0.04492 -6.1e-4,-0.0025 -0.005,-0.0077 -0.002,-0.0078 -0.003,-0.0032 -0.002,-0.001 -0.0176,-0.01563 -0.003,-0.0027 -0.004,-0.0066 -0.006,-0.0098 l 0,-0.002 c -0.0192,-0.02668 -0.004,0 -0.0176,-0.02344 5.2e-4,-0.0067 -4.5e-4,4.3e-4 -0.01,-0.01367 -0.002,-0.0024 -0.003,-0.005 -0.004,-0.0078 -2.2e-4,-9.19e-4 0.004,7e-4 0.004,0 -0.006,-0.0064 -0.0145,-0.01047 -0.0195,-0.01758 -0.008,-0.01063 -0.0175,-0.02112 -0.0234,-0.0332 -0.0271,-0.05563 0.003,5e-5 -0.006,-0.02539 -0.001,-0.0041 -0.005,-0.0078 -0.006,-0.01172 0.0175,0.01374 0.004,0.0022 -0.004,-0.0039 l -0.002,-0.002 c -0.003,-0.0051 -0.007,-0.01031 -0.01,-0.01563 -0.005,-0.0034 -0.009,-0.0079 -0.0137,-0.01172 -0.003,-0.0029 -0.0183,-0.02528 -0.0176,-0.02734 -0.002,-0.0034 -0.005,-0.0061 -0.006,-0.0098 l 0.002,0 c -0.004,-0.0054 -0.0126,-0.02258 -0.0156,-0.03516 0.002,0.0027 0.0121,0.0083 0.01,0.0059 -0.0436,-0.04133 -0.0102,-0.0094 -0.0215,-0.02148 -0.006,-0.0066 -0.0189,-0.01956 -0.002,-0.0059 0.002,0.0013 -0.005,-7.53e-4 -0.006,-0.002 -0.0228,-0.01559 -0.0205,-0.01665 -0.0176,-0.01563 -0.001,-8.59e-4 -0.003,-0.001 -0.004,-0.002 -0.002,-0.0017 -0.004,-0.0039 -0.006,-0.0059 -0.003,-0.0028 0.003,0.0014 -0.004,-0.0039 l 0,-0.002 c -0.004,-0.005 -0.009,-0.0094 -0.0137,-0.01367 l -0.002,-0.002 c -0.001,-10e-4 -9.6e-4,-0.0027 -0.002,-0.0039 -0.003,-0.0019 -0.003,-0.0014 -0.004,-0.002 -0.007,-0.0033 0.0124,0.01242 -0.0234,-0.01367 -0.003,-0.0025 -0.005,-0.0048 -0.008,-0.0078 -0.003,-0.0031 -0.007,-0.0066 -0.01,-0.0098 -0.002,-0.0018 -0.0116,-0.01282 -0.0137,-0.01563 -6.8e-4,-8.87e-4 -0.002,-0.0027 -0.002,-0.0039 -0.002,-8.62e-4 -0.005,-0.0012 -0.008,-0.002 -0.007,-0.0039 -0.014,-0.0097 -0.0215,-0.01367 -0.004,-0.0037 -0.006,-0.0081 -0.01,-0.01172 l -0.002,0 c -0.002,-0.0015 -0.003,-0.0043 -0.006,-0.0059 -0.005,-0.0037 -0.0108,-0.0076 -0.0156,-0.01172 l 0,-0.002 c -0.008,-0.0055 -0.014,-0.0099 -0.0215,-0.01563 -0.002,-0.0018 0.0101,0.005 0.008,0.0039 -0.01,-0.0038 -0.0254,-0.01438 -0.0293,-0.02344 -0.006,-0.0055 -0.0121,-0.0097 -0.0176,-0.01563 l 0,-0.002 c -8.8e-4,-8.8e-4 -0.002,-5.9e-4 -0.004,-0.002 l 0,-0.002 c -0.004,-0.0029 -0.008,-0.0049 -0.0117,-0.0078 -0.009,-0.01099 -0.0214,-0.02054 -0.0313,-0.03125 -0.003,-0.0036 -0.005,-0.0075 -0.008,-0.01172 l 0,-0.002 c -0.002,-8.03e-4 -4.4e-4,2.82e-4 -0.0156,-0.0059 -0.005,-0.0028 -0.008,-0.0077 -0.0117,-0.01172 0.002,0.0016 0.0108,0.0052 0.008,0.0039 -0.009,-0.0044 -0.0165,-0.01126 -0.0234,-0.01758 0.0128,0.0093 -0.004,-0.0047 -0.008,-0.0098 -0.005,-10e-4 -0.009,1.64e-4 -0.0254,-0.01367 -0.0133,-0.01955 0.009,0.006 -0.0137,-0.01563 -0.003,-8.68e-4 -0.007,-0.003 -0.01,-0.0039 -0.002,-0.0016 -0.002,-0.0043 -0.004,-0.0059 0.002,0.0013 -0.007,-0.0058 -0.006,-0.0039 -0.009,-0.0053 -0.011,-0.0047 -0.0254,-0.02148 -0.002,-0.0025 -0.005,-0.0048 -0.004,-0.0078 -0.004,-0.0035 -0.01,-0.0073 -0.01,-0.0078 -0.004,-0.0025 -0.007,-0.0057 -0.0176,-0.0098 0.0196,0.0053 -0.009,-0.0017 -0.0254,-0.01953 -0.003,-0.0022 -0.007,-0.0043 -0.008,-0.0078 -7e-4,-0.0018 0.003,5.25e-4 0.006,0.002 -0.0188,-0.0084 -0.023,-0.01239 -0.0371,-0.02734 l -0.002,0 -0.002,-0.002 -0.002,0 c -0.007,-0.0047 -0.0104,-0.01195 -0.0156,-0.01758 -0.008,-0.0011 -0.0158,-3.71e-4 -0.0234,-0.002 -0.025,-0.0053 -0.0238,-0.02133 -0.0293,-0.03516 -0.002,4.59e-4 -0.004,0.0017 -0.006,0.002 -0.003,0.0012 -0.005,0.0024 -0.008,0.0039 -0.004,0.0022 -0.009,0.0062 -0.0137,0.0078 -0.0168,0.0058 -0.0316,0.0038 -0.0488,0.002 -10e-4,-9.6e-5 -0.003,1.76e-4 -0.004,0 9.7e-4,8.14e-4 -0.003,0.0034 -0.004,0.0039 -0.004,0.0018 -0.007,0.0029 -0.0117,0.0039 -0.0149,0.0034 -0.0173,0.0012 -0.0312,0 0.003,2.53e-4 0.007,-4.06e-4 0.01,0.002 0.002,0.0016 -0.003,0.0012 -0.006,0.002 -0.0145,0.0046 -0.028,0.0049 -0.043,0.0039 -0.005,-3.72e-4 -0.003,-0.0048 -0.008,-0.0059 -0.0137,0.0059 -0.0301,0.01746 -0.0391,0.0078 -0.0547,-0.05824 -0.0325,-0.06565 -0.006,-0.08008 0.009,-0.0024 7.6e-4,1.46e-4 0.0156,-0.0098 0.006,-0.0038 0.0114,-0.0085 0.0176,-0.01172 0.0146,-0.0075 0.0303,-0.008 0.0449,-0.01563 0.005,-0.0016 0.0121,-0.0048 0.0176,-0.0059 10e-4,-2.34e-4 0.002,0.0025 0.004,0.002 0.003,-0.0016 0.005,-0.0057 0.008,-0.0078 0.0123,-0.0082 0.023,-0.01292 0.0371,-0.01563 0.007,-0.003 0.0213,-0.0081 0.0352,-0.01367 -6.1e-4,-0.002 -0.001,-0.0039 -0.002,-0.0059 -8.6e-4,5.41e-4 -0.003,-0.0028 -0.004,-0.002 l 0.002,-0.002 c -2.7e-4,-0.0014 -0.002,-0.0024 -0.002,-0.0039 -7.3e-4,-0.0085 0.01,-0.01372 0.0176,-0.01953 -0.006,4.01e-4 -0.0107,-4.95e-4 -0.0176,0 -0.0327,0.0024 -0.0652,0.0071 -0.0976,0.01172 -0.0132,0.0019 -0.0878,0.02034 -0.11133,0.01367 -0.007,-0.0019 -0.012,-0.007 -0.0176,-0.01172 -0.002,-0.0018 -0.004,-0.0024 -0.006,-0.0039 -0.0102,-0.0067 -0.0244,-0.0083 -0.0293,-0.01953 -0.0153,-0.03497 -0.003,-0.05613 0.0176,-0.07227 -0.005,-5e-5 -0.009,-1.53e-4 -0.0137,0 -0.0452,-0.01659 -0.0523,-0.02098 -0.0391,-0.05273 -0.024,-0.0014 -0.0341,-0.0166 -0.0176,-0.05078 -0.0577,0.01953 -0.1442,-0.001 -0.19336,0.04102 -0.005,0.0043 0.0134,0.0051 0.0195,0.0078 -0.0274,0.0218 -0.0535,0.04612 -0.082,0.06641 -0.16162,0.114976 -0.1276,0.08771 -0.3125,0.167969 -0.09,0.0527 -0.18253,0.05989 -0.2793,0.06445 10e-4,0.0015 0.003,0.0024 0.004,0.0039 -0.0243,0.01268 -0.10943,0.0034 -0.082,0.002 0.0274,-0.0014 0.052,-0.0046 0.0781,-0.0059 -0.0521,-0.07488 -0.11164,-0.145099 -0.16992,-0.216797 -0.16991,0.108736 -0.3273,0.06896 -0.58398,0.07227 -0.65405,0.0084 -0.6541,-0.660156 0,-0.660156 l 0.002,0 0.10156,0 c 0.008,-0.04402 0.0125,-0.0897 0.0332,-0.128907 0.0545,-0.103266 0.16297,-0.227795 0.27539,-0.347656 -0.0541,-0.03842 -0.0179,-0.192903 0.0273,-0.357422 -0.0137,0.01452 -0.0294,0.03112 -0.0352,0.03711 -0.21971,0.150026 -0.0772,0.07351 -0.32812,0.154297 -0.0108,0.0019 0.0498,-0.03288 0.0625,-0.01563 0.0125,0.01695 -0.0447,0.04976 -0.0547,0.03125 -0.003,-0.0051 -0.005,-0.01056 -0.008,-0.01563 -0.0404,-0.07399 -0.0824,-0.148692 -0.12109,-0.22461 -0.26834,-0.18453 -0.27726,-0.283592 -0.12891,-0.363281 -9.3e-4,-0.0055 -0.005,-0.01009 -0.006,-0.01563 -0.007,-0.04794 0.0476,-0.07271 0.0996,-0.09766 -0.008,-0.05303 -0.0175,-0.123757 -0.0273,-0.199219 -0.13695,0.03435 -0.27335,0.06989 -0.4043,0.126953 -0.0492,0.07681 -0.11384,0.132396 -0.25195,0.214844 -0.0625,0.01197 -0.12548,0.02065 -0.1875,0.03516 -0.005,0.0012 -0.007,0.0099 -0.0117,0.01172 -0.23446,0.08683 -0.2789,-0.08349 -0.29883,-0.486328 -0.0348,-0.04495 -0.0447,-0.08279 -0.0117,-0.103516 -2.4e-4,-0.0076 -0.002,-0.0079 -0.002,-0.01563 -4.5e-4,-0.01264 0.018,-0.01576 0.0234,-0.02539 l -0.13476,0 c -0.0439,0 -0.0772,-0.01007 -0.11524,-0.01562 -0.0288,0.0044 -0.0571,0.0122 -0.0859,0.01562 -0.19341,0.02296 -0.39068,0.0027 -0.58399,0.0293 -0.12427,-0.02364 -0.31538,0.04229 -0.37304,-0.07031 -0.27599,-0.538915 -0.0254,-0.545362 0.21679,-0.669922 -0.002,-0.102997 0.0189,-0.243409 0.0449,-0.417969 l 0.002,-0.002 c 0.003,-0.01875 0.001,-0.02546 0.004,-0.04492 0.006,-0.04136 0.0727,-0.01383 0.1211,-0.01367 l 0.002,0 c -0.0126,0.0045 0.034,-0.0181 0.0332,-0.01953 0.003,-0.0067 0.006,-0.01193 0.01,-0.01758 0.0472,-0.02517 0.0985,-0.04102 0.14648,-0.06445 0.14544,-0.07791 0.28376,-0.166272 0.20118,-0.109375 0.10287,-0.0456 0.20334,-0.09828 0.30664,-0.144531 -0.14058,0.0082 -0.28166,0.0081 -0.42188,0.02148 -0.13856,0.01316 -0.53223,0.08983 -0.66797,0.115234 -0.14071,-0.0013 -0.22173,-0.0082 -0.35742,0.01367 -0.0448,0.0072 -0.43612,0.1 -0.44531,0.08984 -0.0916,-0.101095 -0.14249,-0.166697 -0.19336,-0.234375 -0.0916,0.02703 -0.18336,0.05387 -0.27539,0.08008 -0.2448,0.0697 -0.62361,0.1877 -0.89844,0.216797 -0.0129,0.0014 -0.0276,0.0073 -0.041,0.0098 -0.1992,0.140307 -0.34346,0.165214 -0.3711,0.02344 -0.0113,-0.0057 -0.0249,-0.005 -0.0352,-0.01367 -0.14446,-0.121957 -0.15039,-0.335439 -0.14648,-0.451172 -0.0201,0.08359 -0.0263,0.126664 -0.0234,0.002 0.0356,-0.127495 0.0263,-0.08791 0.0234,-0.002 0.0146,-0.06056 0.0325,-0.138786 0.0781,-0.207031 0.0507,-0.07581 0.2581,-0.153987 0.41992,-0.210937 0.003,-0.01227 0.003,-0.02327 0.0527,-0.09375 0.0734,-0.103964 0.0834,-0.103311 0.17578,-0.1875 0.006,-0.01203 0.0134,-0.02312 0.0195,-0.03516 -0.003,-0.005 -0.01,-0.0105 -0.008,-0.01563 0.0366,-0.077 0.13814,-0.252994 0.20703,-0.310546 0.10254,-0.08566 0.2238,-0.145941 0.33594,-0.21875 0.005,-0.06948 0.0399,-0.102189 0.0898,-0.123047 -0.007,0.0034 0.012,-0.0043 0.0156,-0.0059 0.0108,-0.0034 0.0205,-0.0077 0.0332,-0.0098 0.001,2.32e-4 0.002,4.89e-4 0.004,0 0.0115,-0.0017 0.0163,-0.009 0.0293,-0.0098 0.0433,-0.01121 0.0864,-0.02349 0.1289,-0.03711 0.0649,-0.0208 0.0228,-0.0061 0.0703,-0.02148 0.0434,-0.02458 0.23471,-0.146842 0.25977,-0.162109 0.19331,-0.117797 0.086,-0.03797 0.23047,-0.15625 0.0294,-0.01577 0.0503,-0.04224 0.0762,-0.0625 -0.0113,-0.03416 -0.0251,-0.06661 -0.0352,-0.101563 -0.12395,0.06579 -0.25349,0.115195 -0.39257,0.142578 -0.0658,0.05487 -0.15948,0.139987 -0.16016,0.140626 -0.44917,0.421907 -0.67938,0.03995 -0.4043,-0.460938 -0.0298,-0.05969 -0.0637,-0.117179 -0.0762,-0.181641 -0.0164,-0.08484 0.11661,-0.126478 0.17578,-0.189453 0.16853,-0.07711 0.34467,-0.114032 0.52735,-0.130859 0.057,-0.08034 0.13675,-0.172735 0.22851,-0.175781 0.002,-0.0023 0.003,-0.0056 0.006,-0.0078 0.0467,-0.04033 0.10055,-0.07295 0.15039,-0.109375 0.004,-0.0186 0.0158,-0.03359 0.0371,-0.04687 -1.54049,-1.110345 -2.97794,-2.773314 -2.75781,-3.666015 -0.085,-0.166551 -0.27527,-0.438914 -0.44336,-0.689454 -0.0613,-0.07058 -0.15,-0.183909 -0.19922,-0.234375 -0.0257,-0.02635 0.0771,0.05796 0.0898,0.06445 -0.0197,-0.02997 -0.0361,-0.05712 -0.0547,-0.08594 l -0.83594,-0.6875 c -0.2276,0.0024 -0.4541,-0.0051 -0.67969,-0.03711 -0.46811,-0.06649 -0.8621,-0.389308 -1.29297,-0.583985 0.0148,-0.01774 0.0654,-0.04408 0.0449,-0.05469 -3.45092,-1.784952 -1.28399,-0.321812 -4.32421,-2.681641 -1.75117,0.593271 -3.0715,1.021061 -4.82227,0.552735 0.128,-0.40421 -0.81228,0.239146 -1.22266,0.345703 -0.96238,0.249887 -1.94194,0.440138 -2.92578,0.583984 -0.15284,0.02235 -0.38546,0.06444 -0.48437,-0.0332 -0.0731,0.02881 -0.12857,0.05835 -0.19727,0.08203 -2.0725,0.71436 -4.12066,0.930541 -6.29101,1.236328 -0.67503,0.09511 -1.35112,0.179316 -2.02735,0.265625 -0.31261,0.08737 -0.67289,0.193067 -1.35351,0.4375 -0.13556,0.04868 0.55834,-0.06455 0.43164,0.0039 -0.92359,0.499389 -2.08807,0.571062 -3.19531,0.3125 -0.26838,0.178545 -0.2871,0.187933 -0.79493,0.541016 -6.70319,4.66061 -11.40979,-2.402082 -4.57226,-6.863281 1.5337,-1.000673 0.64517,-0.463144 2.70312,-1.554688 0.053,-0.01667 0.10539,-0.03535 0.15821,-0.05273 1.4e-4,-0.0012 -1.4e-4,-0.0027 0,-0.0039 0.71218,-0.730987 1.3444,-1.550055 2.13672,-2.19336 2.76089,-2.241784 7.47622,-3.876569 10.94726,-4.724609 0.4681,-0.122041 0.95344,-0.191875 1.4043,-0.367188 0.11188,-0.0435 0.14386,-0.194946 0.23633,-0.271484 0.26635,-0.220452 0.55007,-0.420738 0.83593,-0.615234 0.49909,-0.339579 1.00198,-0.671665 1.5,-1.011719 -0.18686,-0.002 -0.37377,-0.01072 -0.56054,-0.0098 -1.18494,0.006 -2.37219,-0.0065 -3.5586,-0.0098 z m 22.98633,25.478515 c 0.004,-5.1e-5 0.008,0.0024 0.0117,0.002 0.005,-0.0019 0.009,-0.0039 0.0137,-0.0059 0.001,-0.0012 8.4e-4,-0.0042 0.002,-0.0059 -0.015,0.0058 -0.0157,0.0052 -0.0273,0.0098 z m -0.12695,0.05859 c 0.018,-0.0075 0.0366,-0.01417 0.0547,-0.02148 -8.8e-4,-0.0077 9.6e-4,-0.0058 0,-0.01367 -0.0593,0.04501 -0.0378,0.01779 -0.0547,0.03516 z m 4.49609,3.916016 c -0.002,-0.0026 0.005,0.0048 0.008,0.0059 0.003,0.0011 0.0127,0.003 0.01,0.002 -0.0146,-0.0046 -0.0145,-0.0071 -0.0176,-0.0078 z m 1.16797,1.544922 c 0.001,-0.0071 0.009,-0.0097 0.0117,-0.01563 -0.002,1.15e-4 -0.004,-2.54e-4 -0.006,0 -0.005,7.03e-4 -0.006,0.02093 -0.006,0.01563 z m 0.82227,0.513671 c 0.0192,0.0026 0.0277,0.0059 0.0293,0.0078 -0.006,-0.01013 -0.0134,-0.01924 -0.0195,-0.0293 -0.0206,-3.5e-4 -0.0344,0.0015 -0.0117,0.01953 l 0.002,0.002 z M 78.501953,126.05078 c 0.04385,-0.0666 0.110645,-0.16802 0.160156,-0.24414 0.07313,-0.21246 0.0799,-0.21732 0.142579,-0.39648 -0.08453,0.15232 -0.402588,0.53318 -0.31836,0.38867 0.109486,-0.18786 0.243936,-0.36196 0.373047,-0.53906 0.09522,-0.27026 0.161726,-0.44789 0.232422,-0.64063 -0.430072,0.64057 -0.787014,1.33352 -1.119141,2.0293 -0.124635,0.26109 0.270305,-0.27336 0.529297,-0.59766 z m 0.357422,-0.79101 c -0.02236,0.0635 -0.03088,0.0823 -0.05469,0.15039 9.23e-4,-0.002 0.003,-0.002 0.0039,-0.004 0.03992,-0.0741 0.0695,-0.15339 0.107422,-0.22852 -0.01972,0.0269 -0.03701,0.0551 -0.05664,0.082 z m 0.333984,-0.42579 c 0.01537,-0.0448 0.0277,-0.0754 0.04492,-0.1289 -0.03282,0.0495 -0.06536,0.0996 -0.09961,0.14844 -0.01153,0.0546 -0.02066,0.10974 -0.0332,0.16406 0.0325,-0.0655 0.0539,-0.11639 0.08789,-0.1836 z m 0.04492,-0.1289 c 0.02248,-0.0339 0.04678,-0.0672 0.06836,-0.10156 0.231961,-0.4556 0.409479,-0.8173 0.210937,-0.56836 -0.0142,0.0178 -0.02697,0.0368 -0.04102,0.0547 -0.0322,0.0411 -0.06038,0.0853 -0.0918,0.12696 -0.05883,0.20938 -0.0896,0.31168 -0.146485,0.48828 z m 0.238281,-0.61524 c 0.08258,-0.11556 0.294305,-0.6789 0.160157,-0.32226 0.0043,0.0372 0.01262,0.0254 0.01953,0.0371 0.0447,-0.16299 0.08267,-0.32787 0.109375,-0.4961 -0.02523,0.0654 -0.07526,0.20513 -0.06055,0.15235 0.01901,-0.0682 0.04324,-0.13479 0.06836,-0.20117 0.02866,-0.18789 0.05772,-0.37562 0.08398,-0.56446 -0.03637,0.079 -0.0712,0.15895 -0.111328,0.23633 -0.02725,0.0974 -0.07438,0.25278 -0.0957,0.33203 -0.02216,0.16904 -0.05321,0.38185 -0.0625,0.49219 -0.04484,0.0951 -0.09122,0.18939 -0.134766,0.28516 -0.0066,0.0642 7.44e-4,0.0806 0.02344,0.0488 z m -0.02344,-0.0488 c 0.0083,-0.081 0.106838,-0.44128 0.197266,-0.77735 0.0082,-0.0624 0.01448,-0.11568 0.02344,-0.18164 -0.0683,0.12575 -0.123613,0.25761 -0.193359,0.38281 -0.01885,0.0684 -0.03057,0.13899 -0.05078,0.20704 -0.01368,0.046 -0.0644,0.11832 -0.107422,0.18554 -0.01222,0.077 -0.02668,0.15349 -0.03906,0.23047 0.340432,-0.8796 0.291179,-0.55965 0.121094,0.0566 0.01572,-0.0348 0.03302,-0.0688 0.04883,-0.10351 z m 0.02734,-0.57618 c 0.01207,-0.0438 0.01967,-0.0889 0.03125,-0.13281 -0.09099,0.14698 -0.108217,0.16769 -0.132813,0.19141 -0.01081,0.0652 -0.02274,0.12998 -0.0332,0.19531 0.04463,-0.0848 0.08808,-0.17009 0.134766,-0.25391 z m -0.101563,0.0586 c 0.0027,-0.0163 0.0051,-0.0325 0.0078,-0.0488 -0.02947,0.0585 -0.02451,0.043 -0.05664,0.10742 -0.02238,0.0449 0.03717,-0.0474 0.04883,-0.0586 z m 0.0078,-0.0488 c 0.08481,-0.16831 0.09958,-0.18509 0.164062,-0.30859 0.07838,-0.313 0.158188,-0.6256 0.226563,-0.94141 0.024,-0.24001 0.0275,-0.38941 -0.04492,-0.18945 -0.168461,0.46513 -0.263575,0.95005 -0.345703,1.43945 z m 0.390625,-1.25 c -0.0189,0.18903 -0.04038,0.38712 -0.07813,0.66211 0.03773,-0.0691 0.100654,-0.19119 0.128906,-0.24024 0.03616,-0.12597 0.05892,-0.21566 0.103516,-0.36718 0.01822,-0.0918 0.03202,-0.1853 0.05664,-0.27539 0.01976,-0.0723 0.03022,-0.0884 0.0332,-0.0645 l 0.154297,-1.04297 c -0.0523,0.10139 -0.103867,0.20335 -0.15625,0.30469 -0.08653,0.33943 -0.167878,0.68022 -0.242187,1.02344 z m 0.242187,-1.02344 c 0.04465,-0.17515 0.09938,-0.34689 0.152344,-0.51953 -0.01433,0.0159 -0.0734,0.11052 -0.05078,0.0625 0.05793,-0.12298 0.03078,-0.0597 0.08203,-0.16797 0.02803,-0.0876 0.04904,-0.17703 0.08008,-0.26367 0.03457,-0.0965 0.04649,-0.072 0.04687,0.006 0.198343,-0.4148 0.310911,-0.6404 0.392578,-0.79883 0.0374,-0.24776 0.07583,-0.49521 0.103516,-0.74414 -0.451041,1.0133 -0.779929,2.07886 -1.171875,3.11719 -0.0038,0.0101 0.01455,-0.0158 0.01953,-0.0254 0.115579,-0.22169 0.230908,-0.44393 0.345703,-0.66602 z m 0.703125,-1.68164 c -0.0044,0.0292 -0.0073,0.0587 -0.01172,0.0879 0.02314,-0.0627 0.04885,-0.12428 0.07031,-0.1875 0.001,-0.008 0.0029,-0.0169 0.0039,-0.0254 -0.01048,0.0198 -0.04968,0.10013 -0.0625,0.125 z m 0.0625,-0.125 c 0.0016,-0.003 0.0082,-0.0166 0.0098,-0.0195 0.02238,-0.0674 0.03656,-0.13699 0.05664,-0.20508 0.0026,-0.11411 0.01173,-0.19926 0.0059,-0.35351 -1.48e-4,-0.004 1.58e-4,-0.008 0,-0.0117 -0.02375,0.19662 -0.04835,0.39325 -0.07227,0.58984 z m 0.07227,-0.58984 c 0.0061,-0.0503 0.01512,-0.10011 0.02148,-0.15039 -0.0095,0.0207 -0.018,0.0418 -0.02734,0.0625 0.0017,0.0293 0.0047,0.0586 0.0059,0.0879 z m 0.02148,-0.15039 c 0.02267,-0.0496 0.04111,-0.1011 0.06445,-0.15039 0.076,-0.16047 0.04473,0.0743 -0.0059,0.35742 0.0064,-0.0277 0.01751,-0.0542 0.02344,-0.082 0.03567,-0.16745 0.06983,-0.49646 0.08984,-0.76172 l -0.09375,0.14648 c -0.02662,0.16332 -0.05732,0.32586 -0.07813,0.49024 z m 0.05859,0.20703 c -0.02407,0.10401 -0.0557,0.20607 -0.08594,0.30859 -6.73e-4,0.0296 -6.86e-4,0.0642 -0.002,0.0918 0.0027,-0.005 0.0171,-0.0367 0.01953,-0.041 0.02281,-0.11417 0.04503,-0.22881 0.06836,-0.35937 z m -0.06836,0.35937 c -0.0071,0.0354 -0.01555,0.0819 -0.02148,0.11133 -8.81e-4,0.0134 0.001,0.0339 0,0.0469 0.01398,-0.0634 0.04834,-0.17454 0.06836,-0.25196 -0.0045,0.007 -0.04126,0.0839 -0.04687,0.0937 z m -0.02148,0.15821 c -0.0048,0.0216 -0.01952,0.0663 -0.02344,0.0859 0.01145,-0.0288 0.01117,-0.0335 0.02344,-0.0644 5.1e-4,-0.006 -4.76e-4,-0.0155 0,-0.0215 z m 0,-0.0469 c 0.0013,-0.0201 9.83e-4,-0.0491 0.002,-0.0703 -0.0074,0.0132 -0.04557,0.0962 -0.05469,0.11328 -0.0049,0.0149 -0.0086,0.0301 -0.01367,0.0449 -0.01076,0.0878 -0.01935,0.17606 -0.03125,0.26367 0.03145,-0.0944 0.06632,-0.18771 0.08594,-0.28515 0.003,-0.0148 0.0082,-0.0489 0.01172,-0.0664 z m -0.136718,0.27539 c -0.05906,0.15989 -0.118714,0.32029 -0.185547,0.47656 -0.03669,0.0858 -0.124494,0.23365 -0.203125,0.36719 -0.0042,0.063 -0.0058,0.10934 -0.01367,0.19141 0.117499,-0.2279 0.235758,-0.45583 0.353515,-0.6836 0.01625,-0.11722 0.0312,-0.2345 0.04883,-0.35156 z m -0.402344,1.03516 c -0.03801,0.0737 -0.07721,0.14698 -0.115235,0.2207 0.0042,0.26761 0.0081,0.50955 -0.01563,0.75195 0.01984,-0.0643 0.03769,-0.12943 0.05859,-0.19335 0.0075,-0.17509 0.04639,-0.51071 0.07227,-0.7793 z m -0.634766,2.43945 c 0.02662,-0.049 0.04663,-0.10097 0.07227,-0.15039 0.0048,-0.0171 0.01065,-0.0409 0.01563,-0.0586 -0.0055,0.0133 -0.0081,0.0277 -0.01367,0.041 -0.01183,0.0282 -0.04891,0.0817 -0.06836,0.11914 -0.0024,0.0179 -0.0035,0.0311 -0.0059,0.0488 z m 0.09961,0.17774 c -0.0025,0.0164 -0.0052,0.0325 -0.0078,0.0488 0.03589,-0.093 0.05702,-0.14441 0.08594,-0.21679 l 0.01563,-0.10742 c -0.03284,0.0913 -0.05937,0.18449 -0.09375,0.27539 z m 0.36914,-1.40625 c -0.0033,0.0186 -0.0041,0.0358 -0.0078,0.0547 -0.0016,0.006 0.03819,-0.0775 0.06641,-0.14843 0.03138,-0.0914 0.07741,-0.18063 0.111328,-0.27149 0.03251,-0.15631 0.0527,-0.26457 0.09766,-0.46875 -0.02583,0.0725 -0.04933,0.12759 -0.07813,0.2168 -0.0565,0.1896 -0.101115,0.32077 -0.167969,0.57226 -0.0053,0.01 -0.0073,0.013 -0.01562,0.0293 -8.11e-4,0.003 -0.0051,0.0124 -0.0059,0.0156 z m 0.189453,-0.61719 c 0.03571,-0.11984 0.07572,-0.26177 0.107422,-0.36133 0.007,-0.0402 0.06131,-0.26393 0.04102,-0.19922 -0.151149,0.48207 -0.173534,0.59595 -0.240235,0.83789 0.03208,-0.10015 0.05942,-0.17702 0.0918,-0.27734 z m -0.197265,0.67187 c 5.27e-4,-0.002 -0.02715,0.0669 -0.02148,0.0508 0.0053,-0.0147 0.01572,-0.0283 0.02148,-0.043 5.31e-4,-0.003 -5.23e-4,-0.005 0,-0.008 z M 175.10742,64.566406 c -0.0594,0.02734 -0.18015,0.07267 -0.26758,0.111328 0.0206,-0.0015 0.0499,0.0018 0.0664,-0.002 0.39488,-0.202319 0.38286,-0.193033 0.20117,-0.109375 z m 22.76172,13.072266 c -0.0244,0.01082 0.008,-0.0039 -0.0352,0.01563 -0.0101,0.0046 0.0218,-0.01233 0.0312,-0.01172 4.6e-4,-1.91e-4 0.004,-0.002 0.004,-0.002 l 0,-0.002 z m 0.45313,0.326172 c 0.0257,-0.01582 -0.0427,0.02277 -0.0801,0.04297 0.0156,-0.0067 0.0313,-0.01284 0.0469,-0.01953 0.0157,-0.01017 0.0148,-0.01212 0.0332,-0.02344 z m 0.97265,0.835937 c -0.005,0.003 -0.0112,0.0049 -0.0156,0.0078 0.005,-0.0013 0.006,-3.24e-4 0.0117,-0.002 0.003,-8.04e-4 0.006,-0.003 0.01,-0.0039 -0.002,-8.48e-4 -0.004,-0.0011 -0.006,-0.002 z m 0.24414,0.119141 c -0.003,0.0027 -0.004,0.0054 -0.008,0.0078 0.006,-9e-4 0.0117,-0.003 0.0176,-0.0039 -0.003,-0.0015 -0.007,-0.0024 -0.01,-0.0039 z m -0.0762,0.113281 c -0.008,0.0021 -0.0191,0.0063 -0.0312,0.0098 0.007,-1.79e-4 0.0123,-0.0018 0.0195,-0.002 0.004,-0.0025 0.008,-0.0053 0.0117,-0.0078 z m -0.32031,0.07031 c -0.001,9.79e-4 -4.7e-4,0.0076 0,0.0059 4.8e-4,-0.0019 0.001,-0.004 0.002,-0.0059 l -0.002,0 z m 0.68164,0.169922 c -0.004,3.13e-4 -0.0155,0.0038 -0.0117,0.002 0.0359,-0.01721 0.0164,-0.0026 0.0117,0.002 l 0.002,-0.002 0.002,-0.002 c -0.001,1.18e-4 -0.003,-5.1e-5 -0.004,0 z m -0.27539,0.03906 c 9.1e-4,4.04e-4 0.001,0.0035 0.002,0.0039 l 0.002,-0.002 c 0.009,0.0011 -0.001,-0.0016 -0.004,-0.002 z m 0.32226,0.04492 c -0.002,0.003 -0.004,0.0067 -0.006,0.0098 0.001,0.0012 0.002,0.0027 0.004,0.0039 0.002,9.69e-4 0.007,0.0025 0.008,0.0039 -0.004,-0.005 -0.004,-0.01163 -0.006,-0.01758 z m 0.39844,0.542969 c -5.1e-4,0.0013 -0.001,0.0026 -0.002,0.0039 10e-4,7.03e-4 0.003,0.0013 0.004,0.002 -0.002,-0.0045 -0.002,-0.0056 -0.002,-0.0059 z m -0.10547,0.02148 c 0.001,0.0025 0.002,0.0043 0.006,0.0078 0.0101,0.0085 0.0163,0.01999 0.0234,0.03125 -4.3e-4,-0.004 -0.002,-0.0086 -0.004,-0.01367 l -0.002,-0.002 c -0.004,-0.0031 -0.006,-0.008 -0.01,-0.01172 -0.0109,-0.01 -0.0126,-0.0036 -0.01,-0.0098 -0.001,-6.83e-4 -0.003,-0.0013 -0.004,-0.002 z m 0.86328,0.835937 c 0.001,9.57e-4 0.004,0.0018 0.004,0.002 l 0,-0.002 c -0.001,-5.26e-4 -0.003,5.8e-4 -0.004,0 z m 0.008,0.0039 c 0.003,0.002 0.007,0.0031 0.01,0.0059 0.004,0.0038 0.007,0.0094 0.01,0.01367 l 0.002,0 c 0.002,-0.0023 0.005,0.0038 0.008,0.0059 -0.005,-0.006 -0.0103,-0.01359 -0.0156,-0.01953 -0.005,-5.92e-4 -0.009,-0.004 -0.0137,-0.0059 z m 0.008,0.308593 c -0.008,0.0026 -0.0196,0.0074 -0.0293,0.0078 -0.01,0.01628 -0.0224,0.03114 -0.0332,0.04687 0.018,-0.02111 0.04,-0.0382 0.0625,-0.05469 z m 0.0664,0.04883 c -0.0292,0.02139 -0.0629,0.03759 -0.0801,0.07031 -0.003,0.0059 -0.004,0.0132 -0.006,0.01953 -0.005,0.01331 -0.009,0.01918 -0.0117,0.02539 0.0112,-0.0055 0.0258,-0.01065 0.0352,-0.01758 0.004,-0.0027 0.007,-0.0067 0.01,-0.0098 0.01,-0.0086 0.0183,-0.01626 0.0273,-0.02539 -4.6e-4,-0.0036 0.0112,-0.0072 0.0156,-0.01172 -0.007,-0.01786 0.006,-0.03363 0.01,-0.05078 z m -0.1543,0.04297 c -0.005,0.0053 -0.01,0.0098 -0.0137,0.01563 -0.004,0.0052 -0.007,0.01011 -0.01,0.01563 -0.005,0.0045 -0.002,0.01154 -0.002,0.01367 0.002,-5.17e-4 0.003,-0.0015 0.004,0 0.007,-0.01493 0.0152,-0.02956 0.0215,-0.04492 z m 0.30469,0.08008 c 7e-4,0.006 7.4e-4,0.01168 0.004,0.01758 0.003,0.01408 7.1e-4,1.1e-4 0.0137,0.02539 0.008,0.01513 0.009,0.03121 0.0195,0.04492 0.003,0.0055 0.007,0.01005 0.01,0.01563 0.003,0.0064 0.004,0.01539 0.008,0.02148 0.004,0.0059 0.006,0.01176 0.01,0.01758 0.0145,-0.0049 0.0288,-0.01462 0.043,-0.01758 6.9e-4,-2.95e-4 0.0237,-0.0095 0.0254,-0.01172 0.001,9.88e-4 0.002,0.003 0,-0.01563 -7e-4,-0.0094 -6e-4,-0.01796 -0.002,-0.02734 -0.004,-0.0021 -0.008,-0.0041 -0.0117,-0.0059 -0.0179,-0.0107 -0.0194,-0.03226 -0.0312,-0.04687 -0.0174,0.0044 -0.0363,-0.0082 -0.0547,-0.0098 -0.003,-2.42e-4 0.005,0.0053 0.008,0.0059 0.008,0.0019 0.0174,-0.001 0.0254,0.002 0.004,0.0014 -0.008,0.0013 -0.0117,0.002 -0.008,-6.79e-4 -0.016,-2.78e-4 -0.0234,-0.002 -0.0207,-0.0048 -0.008,-0.0028 -0.0156,-0.0078 -0.004,-0.0031 -0.0106,-0.0049 -0.0156,-0.0078 z m 8.51562,23.222656 c -0.0993,-0.003 -0.1593,0.0763 -0.17383,0.26368 0.11818,-0.0678 0.23502,-0.13637 0.36133,-0.20313 -0.0678,-0.0312 -0.13444,-0.0591 -0.1875,-0.0606 z m -128.433593,7.24024 c -0.0755,0.21594 -0.119273,0.32381 -0.294922,0.9043 -0.04062,0.13424 0.124144,-0.25367 0.162109,-0.38868 0.07891,-0.28065 0.09946,-0.37838 0.132813,-0.51562 z m 0.0078,0.7793 c -0.04618,0.19987 -0.094,0.43049 -0.136718,0.59765 0.01247,0.0328 0.02725,0.068 0.03906,0.0996 0.05141,-0.19452 0.08391,-0.41771 0.09766,-0.69726 z m -0.308593,1.2246 c -0.129873,0.45585 -0.155208,0.53494 0.02734,0.10547 -0.0099,-0.0377 -0.01677,-0.066 -0.02734,-0.10547 z m 0.554687,1.91016 c -0.03899,0.26925 -0.08781,0.55663 -0.144531,0.95898 0.03402,-0.1658 0.07684,-0.33036 0.09961,-0.49804 0.04259,-0.31366 0.04831,-0.39998 0.04492,-0.46094 z m -0.537109,2 c -0.0054,0.004 -0.01345,0.0259 -0.02344,0.0703 -0.0017,0.008 -0.0022,0.0157 -0.0039,0.0234 0.01337,-0.0191 0.02358,-0.0334 0.03711,-0.0527 -0.0014,-0.0289 -0.0044,-0.0446 -0.0098,-0.041 z m -1.179688,4.91992 c -0.0029,0.008 -0.0049,0.017 -0.0078,0.0254 0.0014,-0.002 0.0045,-0.0114 0.0059,-0.0137 5.97e-4,-0.004 0.0014,-0.008 0.002,-0.0117 z m -0.535156,1.73633 c -0.0399,0.0539 -0.08046,0.10734 -0.119141,0.16211 -0.0092,0.0525 -0.02343,0.10384 -0.0332,0.15625 0.04881,-0.10712 0.104041,-0.21098 0.152344,-0.31836 z m -0.849609,11.68164 c -0.0025,0.0159 -0.0012,0.0309 -0.0039,0.0469 -0.0015,0.009 0.0088,-0.0167 0.0078,-0.0254 -0.0012,-0.011 -0.0027,-0.0107 -0.0039,-0.0215 z m 1.294921,7.93359 c -0.01613,0.008 -0.0015,10e-4 -0.01953,0.01 -0.0042,0.002 -0.0079,0.0141 -0.0039,0.0117 0.0067,-0.004 0.01588,-0.0157 0.02344,-0.0215 z m 134.64453,9.89649 c -0.649,0.41055 -1.32671,0.86958 -2.02539,1.375 0.65289,-0.46058 1.35305,-0.86574 2.01953,-1.31055 a 104.18571,68.606196 82.299139 0 0 0.006,-0.0644 z m -78.00976,76.91797 c -0.23899,0.0532 -0.67373,0.15772 -1.00781,0.23633 a 104.18571,68.606196 82.299139 0 0 0.57226,0.25586 c 0.19241,-0.10439 0.38235,-0.21312 0.57422,-0.31836 -0.047,-0.0545 -0.0923,-0.11612 -0.13867,-0.17383 z"
       id="path3383"
       inkscape:connector-curvature="0" />
  </g>
  <g
     inkscape:groupmode="layer"
     id="layer1"
     inkscape:label="hat"
     sodipodi:insensitive="true">
    <path
       style="fill:#000000"
       d="m 162.03125,40.804688 c -3.60714,0.0056 -4.58343,0.174203 -6.44727,1.111328 -2.70082,1.357947 -10.82493,7.194622 -18.9414,13.609375 l -3.41406,2.699218 -3.56055,0.707032 c -11.54328,2.293133 -22.87579,4.751608 -30.119142,6.535156 -9.68498,2.384753 -12.155844,3.419225 -15.177734,6.351562 -1.990108,1.931136 -3.571865,4.494553 -4.234375,6.863282 -0.17091,0.611086 -0.987143,5.126409 -1.814453,10.035156 l -1.503907,8.925781 -0.08789,8.699222 c -0.17056,16.93725 0.452292,27.74993 1.976562,34.26953 0.38943,1.66566 0.824219,4.17759 0.824219,4.76367 0,0.15045 0.519072,-0.20562 3.28125,-2.25781 31.80946,-23.63304 70.47943,-45.013075 111.00977,-61.375002 3.0884,-1.246767 5.63751,-2.336376 5.66601,-2.421876 0.0285,-0.0855 -0.36626,-0.656352 -0.8789,-1.267578 -0.76266,-0.909334 -2.59056,-3.313574 -4.25196,-5.59375 l -0.30078,-0.412109 -2.25,0.541016 c -7.70054,1.849611 -17.56514,4.903491 -26.02539,8.05664 -18.74037,6.984564 -39.19878,17.074715 -58.125,28.669919 -8.978423,5.50066 -19.641805,12.65092 -27.039062,18.12891 -1.094561,0.81057 -2.086969,1.47461 -2.205079,1.47461 -0.29106,0 -1.032493,-0.99609 -0.933593,-1.25391 0.0436,-0.1136 1.653195,-1.35009 3.578125,-2.74804 35.354469,-25.675581 75.303189,-45.386842 108.804689,-53.685551 1.56519,-0.387717 2.89438,-0.749455 2.95508,-0.802735 0.0607,-0.05328 -0.11291,-0.430251 -0.38672,-0.839843 -1.03029,-1.541224 -3.46004,-5.570839 -6.50781,-10.794922 -5.05258,-8.660486 -6.13425,-10.252959 -8.4336,-12.416016 -2.16119,-2.033097 -4.58713,-3.449265 -7.63867,-4.458984 -2.72854,-0.902844 -4.23978,-1.118882 -7.81836,-1.113281 z m 18.07617,35.699218 c 1.38802,0.02 2.58022,0.93098 3.32422,2.539063 0.34752,0.751081 0.41611,1.098167 0.41211,2.099609 -0.005,1.376813 -0.36832,2.326746 -1.19727,3.128906 -0.36745,0.35557 -3.63038,1.831099 -13.28906,6.011719 -7.04074,3.04748 -13.12286,5.6631 -13.51562,5.8125 -0.75633,0.28769 -1.15125,0.316549 -1.76172,0.130859 -3.07083,-0.934099 -4.19391,-5.450821 -1.9082,-7.669921 0.42542,-0.41301 3.159,-1.653426 13.85742,-6.289063 11.86132,-5.139525 13.41065,-5.773272 14.07812,-5.763672 z m -0.0332,1.816406 c -0.23004,0.0012 -6.31594,2.556724 -13.52539,5.679688 -14.36889,6.22426 -13.5388,5.789468 -13.75195,7.210938 -0.19284,1.28594 0.69452,3.022206 1.66015,3.248046 0.165,0.0388 0.43461,0.03699 0.59961,-0.0039 0.90448,-0.22424 26.10506,-11.263031 26.41406,-11.570312 0.54101,-0.537973 0.73546,-1.421047 0.53125,-2.417969 -0.25332,-1.236747 -1.07546,-2.150785 -1.92773,-2.146485 z m 20.83789,2.597657 c -0.64646,0 -15.09293,5.97321 -23.58008,9.75 -34.13414,15.189741 -65.55496,33.304991 -93.503905,53.908201 -4.565378,3.36546 -4.380064,3.19036 -4.583984,4.36133 -0.34933,2.00602 -0.993209,3.72231 -3.011719,8.0293 -0.67663,1.44375 -1.635386,3.60453 -2.128906,4.80078 -1.60714,3.89556 -2.931113,6.07084 -6.820313,11.20312 -6.64997,8.77545 -8.515847,11.42118 -10.929687,15.4961 -3.34477,5.64646 -6.338045,13.03281 -10.115235,24.95703 -3.12397,9.86208 -4.747399,16.85315 -4.630859,19.94336 0.04828,1.28018 0.06574,1.33892 0.539062,1.76172 0.55969,0.49997 0.900516,0.53982 1.634766,0.1914 1.81632,-0.8619 6.087615,-7.23596 11.171875,-16.66992 2.74239,-5.0886 5.021254,-8.57533 8.183594,-12.51953 3.01789,-3.76406 6.921287,-7.80689 10.529297,-10.90625 1.08079,-0.92841 1.964843,-1.7161 1.964843,-1.75 0,-0.0339 -0.08303,-0.19522 -0.185547,-0.35938 -0.126999,-0.2034 -0.138579,-0.36726 -0.03711,-0.51367 0.0819,-0.11819 3.013102,-2.64939 6.513672,-5.625 l 6.365234,-5.41015 0.31836,0.30078 c 0.17599,0.16535 0.383737,0.30083 0.460937,0.29883 0.18323,-0.002 2.619664,-1.86694 5.371094,-4.10938 1.23814,-1.00911 8.961451,-6.51751 17.755861,-12.66406 13.06149,-9.12882 16.20312,-11.2546 19.53906,-13.22852 2.18625,-1.29363 9.4425,-5.57963 16.125,-9.52344 33.69972,-19.88851 58.16537,-34.52341 75.07422,-44.908198 2.76375,-1.69739 5.66547,-3.406525 6.44922,-3.796875 1.66537,-0.82943 3.68951,-1.379354 7.57226,-2.058594 4.87104,-0.85213 5.22859,-0.981678 6.18555,-2.236328 0.56149,-0.73617 0.66283,-1.659518 0.26758,-2.423828 -0.86238,-1.66766 -5.16594,-2.802544 -11.69922,-3.083985 -4.25123,-0.183139 -7.49099,0.242339 -14.40039,1.886719 -8.12308,1.93322 -8.61626,1.906723 -11.48828,-0.585937 -0.94165,-0.81726 -2.38554,-2.166444 -3.20898,-3 -0.82347,-0.833558 -1.58744,-1.515625 -1.69727,-1.515625 z"
       id="path3340"
       inkscape:connector-curvature="0" />
  </g>
</svg>
